/* XPM */
static char *result[] = {
/* columns rows colors chars-per-pixel */
"75 75 117 2 ",
"   c #010100",
".  c #0D0403",
"X  c #130504",
"o  c #1B0604",
"O  c #1B0806",
"+  c #1D0808",
"@  c #230905",
"#  c #2C0B06",
"$  c #240A09",
"%  c #2F0E0C",
"&  c #320C07",
"*  c #310E0C",
"=  c #3A0F08",
"-  c #37100E",
";  c #3B110F",
":  c #3E1210",
">  c #410F09",
",  c #43110A",
"<  c #4C130A",
"1  c #54140C",
"2  c #5A140D",
"3  c #421410",
"4  c #4F1714",
"5  c #521713",
"6  c #551915",
"7  c #591A16",
"8  c #5F1C18",
"9  c #61150E",
"0  c #66190E",
"q  c #6E1B0F",
"w  c #641C15",
"e  c #6C1E17",
"r  c #651E1A",
"t  c #6B1F1B",
"y  c #751C12",
"u  c #7E1E11",
"i  c #6E201B",
"p  c #7F2216",
"a  c #71211B",
"s  c #7A241E",
"d  c #7F2520",
"f  c #842112",
"g  c #8C2313",
"h  c #83251D",
"j  c #8B261B",
"k  c #932315",
"l  c #9B2416",
"z  c #93281B",
"x  c #9D2B1F",
"c  c #A22517",
"v  c #A92717",
"b  c #A62A17",
"n  c #A82A17",
"m  c #A72418",
"M  c #AB2519",
"N  c #A32C1D",
"B  c #AC2C1A",
"V  c #B22D17",
"C  c #B02619",
"Z  c #B22D18",
"A  c #BC2D1A",
"S  c #822621",
"D  c #872821",
"F  c #8E2A24",
"G  c #932A23",
"H  c #9A2B21",
"J  c #A22C20",
"K  c #AC2D20",
"L  c #B32D21",
"P  c #BB2D20",
"I  c #C42E1B",
"U  c #CB2F1C",
"Y  c #D32F1E",
"T  c #D92F1F",
"R  c #CB301D",
"E  c #D5301E",
"W  c #DB301F",
"Q  c #E02F1F",
"!  c #C52E20",
"~  c #CC2F21",
"^  c #D42F20",
"/  c #DD2F20",
"(  c #DE3020",
")  c #E02F20",
"_  c #E03020",
"`  c #E23A26",
"'  c #E33D29",
"]  c #E4432D",
"[  c #E5482F",
"{  c #E44730",
"}  c #E64C34",
"|  c #E65137",
" . c #E7553A",
".. c #E8563A",
"X. c #E7593D",
"o. c #E8593C",
"O. c #E95F41",
"+. c #EA6344",
"@. c #EB6847",
"#. c #EC6C4A",
"$. c #EC714E",
"%. c #EC7453",
"&. c #EC795A",
"*. c #EC7E62",
"=. c #EC8166",
"-. c #EC856C",
";. c #EC8972",
":. c #EC927E",
">. c #EB9685",
",. c #EB9B8B",
"<. c #EB9F91",
"1. c #EBA194",
"2. c #EBA69C",
"3. c #EBADA5",
"4. c #EBAFA8",
"5. c #EBB0AA",
"6. c #99D9EA",
/* pixels */
"6.6.6.6.6.6.6.6.6.6.6.6.6.6.6.6.6.6.6.6.6.6.6.6.6.6.6.6.                .                     6.6.6.6.6.6.6.6.6.6.6.6.6.6.6.6.6.6.6.6.6.6.6.6.6.6.6.6.",
"6.6.6.6.6.6.6.6.6.6.6.6.6.6.6.6.6.6.6.6.6.6.6.6.6.6.      X # = = , > > = , < < , > = = & X       6.6.6.6.6.6.6.6.6.6.6.6.6.6.6.6.6.6.6.6.6.6.6.6.6.6.",
"6.6.6.6.6.6.6.6.6.6.6.6.6.6.6.6.6.6.6.6.6.6.. . X X X X X & q f g l c l k l m M c l g f q & o X X X X X . 6.6.6.6.6.6.6.6.6.6.6.6.6.6.6.6.6.6.6.6.6.6.",
"6.6.6.6.6.6.6.6.6.6.6.6.6.6.6.6.6.6.6.6.  . + - , < 1 1 1 0 b A I U Y Y I U T / Y Y I I v y 9 2 1 < , > # .   6.6.6.6.6.6.6.6.6.6.6.6.6.6.6.6.6.6.6.6.",
"6.6.6.6.6.6.6.6.6.6.6.6.6.6.6.6.6.6.6.X X @ , e p k c c l c U W _ _ _ _ T ) _ _ _ _ _ W T I C C c k g f 2 @ o X 6.6.6.6.6.6.6.6.6.6.6.6.6.6.6.6.6.6.6.",
"6.6.6.6.6.6.6.6.6.6.6.6.6.6.6.6.6.6.$ - , 1 a x A R W _ E E W _ _ _ _ _ Q ) _ _ _ _ _ _ Q _ _ _ W E I I k 0 1 > # 6.6.6.6.6.6.6.6.6.6.6.6.6.6.6.6.6.6.",
"6.6.6.6.6.6.6.6.6.6.6.6.6.6.6.6.  X , e j z b Z R ^ _ _ W ( ( _ _ _ _ _ _ _ _ _ _ _ _ _ ) ) Q _ W W W W U I C f 1 o   6.6.6.6.6.6.6.6.6.6.6.6.6.6.6.6.",
"6.6.6.6.6.6.6.6.6.6.6.6.6.6.    @ , y x B Z A U ^ ( _ _ ( _ _ W _ _ _ _ _ _ _ _ _ _ Q _ _ _ _ _ _ _ _ _ Q _ W A f < O     6.6.6.6.6.6.6.6.6.6.6.6.6.6.",
"6.6.6.6.6.6.6.6.6.6.6.6.6.X X o < f v V V A U T W _ ) _ _ _ _ _ _ _ _ _ _ _ _ _ _ _ _ ) _ _ _ _ _ _ _ _ _ _ _ Y A f < o o X 6.6.6.6.6.6.6.6.6.6.6.6.6.",
"6.6.6.6.6.6.6.6.6.6.6.6.+ ; 5 w k Z I A A U T ( _ _ _ _ _ _ _ Q _ _ _ Q _ ) _ ) _ _ _ _ _ _ _ _ Q _ _ _ _ _ _ W Y I l f q < @ 6.6.6.6.6.6.6.6.6.6.6.6.",
"6.6.6.6.6.6.6.6.6.6.6.$ - i j l V I U U I T ( _ _ ) _ ( Q _ _ _ _ _ _ _ _ _ _ _ _ _ _ _ _ _ Q _ Q Q Q _ _ _ _ _ T T Y I M f < # 6.6.6.6.6.6.6.6.6.6.6.",
"6.6.6.6.6.6.6.6.6.6.$ ; w j B Z A I I R T / ( _ _ _ _ _ _ _ _ _ Q _ _ _ _ _ _ _ _ Q _ _ _ _ _ _ _ _ Q _ _ _ _ _ Q _ _ _ T B u < # 6.6.6.6.6.6.6.6.6.6.",
"6.6.6.6.6.6.6.6.6.O - i z B B Z Z I I R T _ ( _ _ _ ) _ _ _ _ _ _ _ _ Q _ _ _ _ ) ) _ _ _ ' ' ' ' ' ` _ _ _ _ _ _ _ _ _ W E V u < O 6.6.6.6.6.6.6.6.6.",
"6.6.6.6.6.6.6.6.X ; 8 j N Z Z Z A U R I U W _ _ _ _ _ _ _ _ / _ _ _ _ _ _ _ _ _ _ _ _ _ ' | o.o.o...[ _ _ _ _ _ _ _ _ _ _ _ E C u < X 6.6.6.6.6.6.6.6.",
"6.6.6.6.6.6.6.  X 6 h J B B V Z A R U I U W _ Q _ _ _ _ _ _ _ _ _ Q _ _ _ _ _ ` ' ` _ ' } +.#.$.$.#.o.[ ] ` ` _ _ _ _ _ _ _ W W M q o   6.6.6.6.6.6.6.",
"6.6.6.6.6.6.6.  X 6 d H x B Z Z Z A I Y W _ _ _ _ _ Q _ Q _ _ ( _ _ _ _ _ Q ` } | ] ' } +.#.#.$.$.#.#.+.+.o.] _ Q _ _ _ _ _ _ _ I u o   6.6.6.6.6.6.6.",
"6.6.6.6.6.6.  + ; i D H x B Z V Z I E W W _ _ _ _ Q _ _ _ _ _ _ _ _ _ _ _ ) _ { } |  .O.$.*.-.-.-.-.-.=.&.#...] ` Q Q ) _ _ ) _ U l 1 o   6.6.6.6.6.6.",
"6.6.6.6.6.6.O : i s F x B V Z Z A R E W _ _ _ _ _ _ _ _ _ ( _ _ _ _ _ _ _ _ _ ' {  .+.#.*.>.<.1.1.1.1.,.;.&.#...{ _ _ ) _ _ _ _ T A g < @ 6.6.6.6.6.6.",
"6.6.6.6.6.$ : i D H N n B V Z A R R E W _ _ Q _ _ _ _ _ ) _ _ Q _ _ _ _ _ ) ) ' | O.%.=.>.1.3.4.3.3.3.3.,.;.&.@...] ` Q _ _ _ _ ) T A f 1 # 6.6.6.6.6.",
"6.6.6.6.X % i d G H B B V V A R R I R W _ _ _ ( _ _ Q _ _ _ _ _ _ _ _ _ _ _ ` } ..@.&.:.2.3.5.4.5.5.5.3.2.,.;.&.@.X.] T _ _ _ _ Q T T A f > o 6.6.6.6.",
"6.6.6.  X : d G G H N B Z V A I U I U W _ _ _ _ _ _ / _ Q _ _ _ _ _ _ _ _ ' } | o.@.*.,.4.3.4.3.3.3.3.4.5.3.,.;.&.+.[ _ _ _ _ _ ) _ _ W V 1 O   6.6.6.",
"6.6.6.  O 3 d G F G H B B V V A I Y W W _ ) _ _ _ _ _ _ _ _ _ _ _ _ ) ( _ { O.} } o.&.>.3.4.3.4.5.3.4.3.3.3.3.,.-.@.[ _ _ _ _ _ ) ) _ _ I 0 @   6.6.6.",
"6.6.  $ : i D F F H N B V Z V I I U Y W _ _ _ Q _ _ _ _ _ _ _ ) _ _ _ _ _ { } | ..+.%.-.>.2.4.5.3.3.3.4.3.4.5.1.;.#...[ ` _ _ _ ) ) ) ) Y k 1 @ . 6.6.",
"6.6.. * i F F F G x B B Z V A R U I U W _ _ _ _ _ _ Q _ ( _ ( _ ) _ _ _ ) ` '  .O.#.#.%.=.,.2.2.3.3.4.4.5.3.3.,.-.$.+...' _ Q _ ) ) ) ) T A f > X 6.6.",
"6.6.. : t F F F F G J K B V Z I I Y E W _ _ _ _ _ _ _ _ Q _ _ _ _ _ ) _ _ ] | }  .O.#.$.%.=.;.;.,.2.5.5.5.3.,.;.&.#. .] _ _ _ _ _ _ _ ) _ R g < X 6.6.",
"6.6.. : d G F F G G J J Z V A A I R T W _ Q _ _ Q _ _ _ _ _ _ _ _ _ ) _ ` {  .| |  .O.#.$.%.$.&.;.>.1.1.1.,.;.&.#.+.} ` _ _ _ _ _ _ _ _ W E l < X 6.6.",
"6.  . : i G G F G H J B B V Z I U U Y T _ _ _ _ _ _ _ Q _ _ _ Q ( ) ) _ _ ' { | | }  .+.#.#.#.#.&.=.;.;.;.-.&.$.#.O.] Q _ _ _ _ _ Q ) ) _ W c 2 X   6.",
"6.  . : i G F F G H B B Z V A R U I U U T W _ _ _ _ _ _ _ _ _ _ _ _ _ _ _ ) ` } | | } ..@.#.$.$.$.$.%.%.%.$.$.#.+.o.] _ _ _ _ _ _ _ _ ) _ _ M 2 X   6.",
"    . : i G F F F G x B V B Z I I U U I U W _ Q _ Q W _ _ _ _ _ _ _ _ ( _ ) _ ' } } | | | +.#.#.$.#.#.#.#.#.#.+.o.] _ _ _ _ _ _ _ _ _ ) ) _ C 9 X     ",
"  . $ 4 d G F F G G x B B V V V A U U I U W _ _ _ _ _ _ _ Q _ _ ) _ _ _ _ ) _ ) ' } | ] '  .+.@.@.+.@.#.@.+.+. .] _ _ _ _ _ _ _ _ _ _ _ _ Q A y # .   ",
"  $ 6 d D F F F G x N B V Z Z B V A I Y W _ _ _ _ _ _ _ _ _ _ _ _ _ _ ) _ _ _ _ _ ' ` ` _ ] | +...| | +...] ] ` ` _ _ _ _ _ _ _ _ Q _ _ Q _ U v q #   ",
"  * i D G F F F G x N V V V V Z A A U U T _ _ _ _ _ _ Q _ _ _ ) _ _ _ _ _ _ _ _ _ _ _ _ W ( ] } [ ] ] | ] ` ( _ _ _ _ _ _ _ _ _ _ _ _ _ _ _ W I f =   ",
"  % i F G F F G G G H B B Z V V A I U I U W _ W _ _ _ Q _ _ _ _ _ _ _ _ ) _ _ _ _ ) Q _ _ Q _ ' ` _ ` ' ` Q Q ) ) _ _ _ ) _ _ _ _ _ Q _ _ _ W I g =   ",
"  % i F G F F F F G G N Z V V V A I U U U U E W _ _ _ _ _ _ _ Q _ / _ _ _ _ ) _ _ ( _ _ _ _ _ _ _ _ ) _ Q _ ) _ _ _ _ ( _ _ Q _ _ _ _ _ _ _ _ U l ,   ",
"  % i F G G F F F F H N V V B V Z A I U U I E W _ Q _ _ Q _ _ _ _ _ _ _ _ _ _ ( _ _ _ _ Q _ / Q Q Q ) Q Q _ _ _ _ _ _ _ _ _ _ _ _ _ _ _ _ _ _ Y l <   ",
"  % i F G F F F F F G J B V V V V V A I U U E W _ _ _ _ _ _ W _ _ _ ) _ ) _ _ _ Q _ _ _ _ _ _ _ _ _ _ _ _ _ _ ) _ Q _ _ _ _ _ ( _ Q _ _ Q _ _ T l ,   ",
"  % i F G G G G F F G N B V V V V V V A I E W _ _ _ _ Q _ _ Q _ _ _ _ _ _ _ _ _ _ _ _ _ _ _ _ _ _ ) _ _ _ Q _ _ Q _ _ ( Q _ _ _ _ _ Q _ _ _ W U k =   ",
"  * i F G H H H F F G H N B V V V V B V A I E W _ _ _ _ _ _ _ _ _ _ ) ( _ _ _ ( _ _ _ ) _ _ ) _ _ _ _ _ _ _ _ _ _ _ _ _ _ _ ( _ _ _ _ _ _ _ _ U l ,   ",
"  % i F G H N H G F F F H N V V Z Z V V Z I U W Q _ _ _ _ _ _ _ _ _ _ _ _ _ ) _ Q _ _ _ _ _ _ _ _ _ ) _ _ W _ _ _ _ _ _ _ _ _ ) _ _ _ _ _ _ _ W c <   ",
"  % i F H G H G G F F F H N V V B V V Z A I U I T W _ _ _ _ Q _ _ ) _ _ ) _ _ _ _ _ _ _ _ Q _ _ _ _ _ ( _ _ ) _ _ _ _ Q _ _ _ _ _ Q _ _ _ _ _ U k >   ",
"  % i F F G H G F F F F H x B B V V Z Z A R R I U T T _ _ Q _ _ _ _ _ ) ( _ _ _ _ _ Q _ _ _ _ _ _ _ _ _ _ ) _ _ _ _ _ _ _ _ _ _ _ _ _ _ W T E I k ,   ",
"  % t F G G H H G F F F F H x B B V Z Z A R I R I U T W _ _ _ _ _ W _ _ _ _ ) _ _ _ _ _ _ _ _ Q _ _ Q _ _ _ _ _ _ / _ _ Q _ _ _ _ _ _ _ W Y E I l ,   ",
"  * i F H H J J H G F F F G H B V V Z B Z Z I R U I U T _ _ _ Q _ _ _ _ _ _ _ _ _ Q ( _ _ T _ _ _ _ _ _ _ W _ _ _ _ _ _ _ _ ( _ _ _ _ _ W U R I c ,   ",
"  * i F G G H J x H G F F F H N V Z Z Z V V Z I I U U U T W _ _ _ Q _ _ _ Q _ _ _ _ _ _ _ _ _ ) _ _ _ ) _ _ Q _ _ _ Q _ _ _ _ ) _ _ _ _ _ Y E I k >   ",
"  $ 6 d F G G J N N H G F F H J B B V V V V V A I U U I R E ( ( _ _ _ _ _ _ _ _ _ _ _ Q _ _ _ _ ) _ _ _ _ _ _ _ _ Q _ _ _ _ _ _ _ _ _ _ W W U c q #   ",
"  . + 4 d H N N x N x H F F G G N B V V V V V B Z I U U I I E ( _ _ _ T _ Q ) _ _ _ _ _ _ _ _ _ _ _ Q _ _ Q _ _ _ _ _ _ _ Q _ ( _ _ _ _ W E l 0 # .   ",
"    . : a H N x N x N x H G F F H J B B V V V B V A I U R I R T W W T T _ _ _ _ _ _ ) _ _ Q _ _ _ _ _ _ _ _ _ ) _ _ ) _ _ _ _ _ _ _ W W E I k < X     ",
"6.  . : a H H N N x x N x H G D F H J B B V V V V Z Z I U R I R T U I U W ( _ ( ( ( _ _ _ _ _ ( Q _ _ _ _ _ _ _ _ _ _ _ _ _ T _ _ _ W R I Z f < .   6.",
"6.  . : a H J B B N N N x G F F G G G H B V V V B V V A I I A A I R U I U W ( ^ Y T _ _ _ _ _ _ _ _ _ _ _ _ _ _ Q _ _ _ _ W Y Y ^ ( R I Z B p , .   6.",
"6.6.. : a H N B V V N N H G G F F F G H H B V V V V B V A A B V A I U U I U ^ U U Y T W _ W W W ( W W _ W W _ _ W W ( ( W Y U U E R A Z B B s ; . 6.6.",
"6.6.. : i H J B V V B N H G F F F F F G H x B B V V V V B V V B V A I R I U U I I U Y T W E E W E T T W T U W W W Y T W Y U I R R I Z B J H i - . 6.6.",
"6.6.. - r F H J B V V B N H G F F F F F G H N B V B V V Z V V Z B V A I Y I A U U I I R E I I E U I I T U I Y U U I U Y I I U I A Z B N G F i - . 6.6.",
"6.6.. + 3 r D G N B B N N x H G F G F F F F H x B B V V V V V V V B Z A I A Z I I A Z I R I R I U I U U U U I U U U I I Z A I A Z B N H S i 3 + . 6.6.",
"6.6.6.  + 3 S G H N N N x N N H G G F F F F F H J B B B B V V B V V V V A Z V Z V V V V A E I I I U U A I U I I I U I V V V Z V B x G G d 3 +   6.6.6.",
"6.6.6.  X : d G G N B B N x x N H G F F F F F G H H x N B V V V V V V V V Z Z V V B V V A A A A A A I Z A I Z A A A A V B B J H H H F F d : X   6.6.6.",
"6.6.6.6.X - r S G N K Z Z K N N x H G G F F F F F G G H N B B B V V V V V V B V V V V V Z Z Z Z V Z V V V Z Z Z A Z B B B N H G G G F d i - + 6.6.6.6.",
"6.6.6.6.6.$ : i D G B P R ! L B N N H G F F F F F F F F H x x N B B V B V V V B V V V Z Z Z Z Z V V B V V V Z L B B N x x H G F F F D i : + 6.6.6.6.6.",
"6.6.6.6.6.6.X : i h H P ^ ^ ~ L K N N x G F G H G F F F F G F x J B B B B B V B B B Z B B V B B B B V B B B B K B N H G F F F F F S i : + 6.6.6.6.6.6.",
"6.6.6.6.6.6.  O - i F K R W ( ! A A V N H G H N H G F F F F F F H H H H x N B N N N B N x B N N N B N N B B J H x H F F F F F G D r : O   6.6.6.6.6.6.",
"6.6.6.6.6.6.6.  X 7 h N Z ! ^ ( T I A Z B H N N H H G F F F F F F G F F H H N H H H N H G N N z x x x G x N H G F F F F F F G G d 6 X   6.6.6.6.6.6.6.",
"6.6.6.6.6.6.6.  X 6 S G H L R E W E E Y ! B N H N N H F F F F F F G F F F G G G G G G G G G G G G G G G G G G F F F G F F F F G d 4 .   6.6.6.6.6.6.6.",
"6.6.6.6.6.6.6.6.. : 8 d G J B R E ( ) _ ^ I B H x N x H G F H H G F F F F F F F F F G F F F F F F F G F F F G F F F F F F G G d r : X 6.6.6.6.6.6.6.6.",
"6.6.6.6.6.6.6.6.6.+ : 8 D G H A I ( / / / Y I B J H N N H H N x H F F F F F F F F F F F G F F F F F F F F F F F F G G F F F S 8 : + 6.6.6.6.6.6.6.6.6.",
"6.6.6.6.6.6.6.6.6.6.$ : 8 S G J K P ! U T / ^ I P A B B N x x x x G F H H H F F F F F F F F F F F F F F F F G F F F G G G d 8 : $ 6.6.6.6.6.6.6.6.6.6.",
"6.6.6.6.6.6.6.6.6.6.6.$ : 8 d h F H K A ! ^ ^ E ~ I A V B B H J B J H H N x G G F G G G F G G F F G G F F F F G F F D d d r : $ 6.6.6.6.6.6.6.6.6.6.6.",
"6.6.6.6.6.6.6.6.6.6.6.6.+ : 6 6 r S G J L P ~ U Y U I Z A A J Z Z L K x N x x G G z H G G H H G G H H G F F F F F S r 7 6 : + 6.6.6.6.6.6.6.6.6.6.6.6.",
"6.6.6.6.6.6.6.6.6.6.6.6.6.X X X - i D G G H J Z V Z Z A I ~ A A R I Z N x x B G H H B H H N N H x N N G F F F F D i : X . X 6.6.6.6.6.6.6.6.6.6.6.6.6.",
"6.6.6.6.6.6.6.6.6.6.6.6.6.6.    O : r S G G H x H N B A I I A A I I Z B N B B B B B B B J x J J x x H G F G G h r : X     6.6.6.6.6.6.6.6.6.6.6.6.6.6.",
"6.6.6.6.6.6.6.6.6.6.6.6.6.6.6.6.  X 3 r S d F F G H N B B Z Z V B Z Z B B V V L B B V B N H H N J H F F D d d i 3 X   6.6.6.6.6.6.6.6.6.6.6.6.6.6.6.6.",
"6.6.6.6.6.6.6.6.6.6.6.6.6.6.6.6.6.6.$ * : 3 r D G G H J J N B B N B B B N N B J N B B N H G H H H H F D i : - % $ 6.6.6.6.6.6.6.6.6.6.6.6.6.6.6.6.6.6.",
"6.6.6.6.6.6.6.6.6.6.6.6.6.6.6.6.6.6.6.X X + 3 r i d t a y h N J H J B J H N K H x N B x F s i i i d i i 3 O X X 6.6.6.6.6.6.6.6.6.6.6.6.6.6.6.6.6.6.6.",
"6.6.6.6.6.6.6.6.6.6.6.6.6.6.6.6.6.6.6.6.    $ : : - : - : 5 h G F G H z F G G G G G H F s 4 : ; - - ; - $ .   6.6.6.6.6.6.6.6.6.6.6.6.6.6.6.6.6.6.6.6.",
"6.6.6.6.6.6.6.6.6.6.6.6.6.6.6.6.6.6.6.6.6.6.. . . . . . . $ 8 t i i i i i i i i i i i t 8 $ . . . . . . . 6.6.6.6.6.6.6.6.6.6.6.6.6.6.6.6.6.6.6.6.6.6.",
"6.6.6.6.6.6.6.6.6.6.6.6.6.6.6.6.6.6.6.6.6.6.6.6.6.6.      . $ % % % % % % * % % % % * % $ .       6.6.6.6.6.6.6.6.6.6.6.6.6.6.6.6.6.6.6.6.6.6.6.6.6.6.",
"6.6.6.6.6.6.6.6.6.6.6.6.6.6.6.6.6.6.6.6.6.6.6.6.6.6.6.6.                                      6.6.6.6.6.6.6.6.6.6.6.6.6.6.6.6.6.6.6.6.6.6.6.6.6.6.6.6."
};
