/* XPM */
static char *_7c5904dc7ee4a46fa8e7b70db8619747B8ChBG0XfGbHwdD[] = {
/* columns rows colors chars-per-pixel */
"75 75 234 2 ",
"   c #99D9EA",
".  c #100000",
"X  c #0C0100",
"o  c #2D3656",
"O  c #1C2C4B",
"+  c #1B304F",
"@  c #252437",
"#  c #4A3450",
"$  c #627AC9",
"%  c #4D91FE",
"&  c #538DFE",
"*  c #5990FA",
"=  c #2C3C66",
"-  c #190100",
";  c #722E42",
":  c #667BE4",
">  c #4C8CFE",
",  c #2B53F3",
"<  c #1919E7",
"1  c #2926EC",
"2  c #3C75FC",
"3  c #588CFF",
"4  c #1A223F",
"5  c #511F2B",
"6  c #438BFF",
"7  c #2145E5",
"8  c #060AEA",
"9  c #020BF4",
"0  c #0A19E6",
"q  c #3965FA",
"w  c #618BE9",
"e  c #121724",
"r  c #63568C",
"t  c #4C8CF6",
"y  c #274BF5",
"u  c #0506CD",
"i  c #030596",
"p  c #030AFB",
"a  c #477BFA",
"s  c #3B6FB8",
"d  c #261B2C",
"f  c #346CFC",
"g  c #0417DD",
"h  c #020655",
"j  c #000743",
"k  c #0808FF",
"l  c #0113EB",
"z  c #0106F5",
"x  c #152CF0",
"c  c #5391FD",
"v  c #3B507D",
"b  c #595A96",
"n  c #1433F2",
"m  c #662615",
"M  c #2D5BF5",
"N  c #538CEB",
"B  c #5885DA",
"V  c #3374F4",
"C  c #0411CC",
"Z  c #03032A",
"A  c #0608B7",
"S  c #1429EA",
"D  c #3D8CFD",
"F  c #454578",
"G  c #1A3EEB",
"H  c #02078A",
"J  c #0A12EB",
"K  c #346CF4",
"L  c #4D739E",
"P  c #010461",
"I  c #01043F",
"U  c #040DDA",
"Y  c #0B1CF2",
"T  c #021CE3",
"R  c #2345ED",
"E  c #5A8AF3",
"W  c #69486B",
"Q  c #441F32",
"!  c #5988ED",
"~  c #3463F6",
"^  c #4768ED",
"/  c #4783F5",
"(  c #214AEC",
")  c #0212F3",
"_  c #3D84FE",
"`  c #626AB9",
"'  c #0101A2",
"]  c #0810C4",
"[  c #5285F3",
"{  c #367BF5",
"}  c #2576F6",
"|  c #0C2CEA",
" . c #5D85E3",
".. c #6666A9",
"X. c #031BEC",
"o. c #4376F4",
"O. c #5A78CB",
"+. c #426CC4",
"@. c #4383FE",
"#. c #1E4AEC",
"$. c #3751EF",
"%. c #5678D6",
"&. c #01067E",
"*. c #020AC3",
"=. c #1638E8",
"-. c #5586FC",
";. c #545185",
":. c #3773EB",
">. c #0A17F5",
",. c #653452",
"<. c #558CF4",
"1. c #2C5AF9",
"2. c #2C53EF",
"3. c #6983F1",
"4. c #597ADB",
"5. c #2B6AF2",
"6. c #437EFE",
"7. c #586BB5",
"8. c #594675",
"9. c #1B3DF0",
"0. c #396BFC",
"q. c #7169C0",
"w. c #338BFE",
"e. c #2D71E0",
"r. c #133DF4",
"t. c #0114E5",
"y. c #566AAB",
"u. c #4A84FF",
"i. c #0A25E3",
"p. c #4A4B84",
"a. c #1C57F2",
"s. c #5F76BF",
"d. c #122CE5",
"f. c #304170",
"g. c #2E73F4",
"h. c #265DF3",
"j. c #051CF4",
"k. c #523C4F",
"l. c #1946F3",
"z. c #5B84EC",
"x. c #2C64F5",
"c. c #0B24F3",
"v. c #1333EC",
"b. c #4A6BBE",
"n. c #256CF5",
"m. c #0B24EB",
"M. c #62579C",
"N. c #5384E4",
"B. c #4367B5",
"V. c #233DF4",
"C. c #3C6EF2",
"Z. c #4461A8",
"A. c #2C6CEC",
"S. c #0313F8",
"D. c #454C86",
"F. c #0A1BEC",
"G. c #3B7BFC",
"H. c #2254F0",
"J. c #051BF9",
"K. c #0724F2",
"L. c #1132E2",
"P. c #2362EC",
"I. c #1647E8",
"U. c #163BDA",
"Y. c #0524EB",
"T. c #1C43E3",
"R. c #5985F3",
"E. c #3975F5",
"W. c #2466E5",
"Q. c #2F406A",
"!. c #5A7DE3",
"~. c #2569EC",
"^. c #495793",
"/. c #1645F3",
"(. c #475DA4",
"). c #5584EC",
"_. c #0020DD",
"`. c #4A64AA",
"'. c #0523E2",
"]. c #2A59ED",
"[. c #5C76D6",
"{. c #0B25DD",
"}. c #1C6EF7",
"|. c #0B2CDC",
" X c #1D5BED",
".X c #2458EC",
"XX c #0B2DE3",
"oX c #3C7AF4",
"OX c #0B32DC",
"+X c #1552EC",
"@X c #143BE2",
"#X c #052AE3",
"$X c #2056EB",
"%X c #3477FA",
"&X c #3D6CC5",
"*X c #0D42E2",
"=X c #1B54EC",
"-X c #1B49F3",
";X c #0F36F1",
":X c #1132DC",
">X c #4387EF",
",X c #4B86EE",
"<X c #0C32E1",
"1X c #052BDB",
"2X c #254EE5",
"3X c #2A56E5",
"4X c #132ADF",
"5X c #0533DB",
"6X c #0B36E6",
"7X c #3366EB",
"8X c #463868",
"9X c #0935D6",
"0X c #2768F8",
"qX c #2F58A6",
"wX c #0B2ED4",
"eX c #194AE3",
"rX c #2A68E5",
"tX c #4775E5",
"yX c #092ECD",
"uX c #485C97",
"iX c #1743DA",
"pX c #0B34CC",
"aX c #173CD7",
"sX c #5B6BC1",
"dX c #637BD6",
"fX c #2051D9",
"gX c #5C3988",
"hX c #4975DE",
"jX c #2941D9",
"kX c #1770F7",
"lX c #3694FF",
"zX c #0B43D8",
"xX c #2C67DA",
"cX c #4F3E6F",
/* pixels */
"                                                                                                                                                      ",
"                                                                                                                                                      ",
"                                                                      o O + @                                                                         ",
"                                                                . # $ % & % * =                                                                       ",
"                                                              - ; : > , < 1 2 3 4                                                                     ",
"                                                              5 $ 6 7 8 9 9 0 q w e                                                                   ",
"                                                            X r t y u i 9 p 9 0 a s                                                                   ",
"                                                            d : f g h j 8 k l z x c v                                                                 ",
"                                                            b > n i m h 8 k 9 p z M N d                                                               ",
"                                                            B V C h Z A k 9 p p p S D b                                                               ",
"                                                          F 3 G H Z H k z l l 9 9 J K B                                                               ",
"                                                        X L a < P I U 9 Y y , T k 9 R E W                                                             ",
"                                                        Q ! ~ u j H p J ^ / K ( ) 9 < _ `                                                             ",
"                                                        W t G ' h ] z y [ / { } | 9 8 ~  .                                                            ",
"                                                        ..6 g H i l X.o.O.+.@.} #.p 9 $.c o                                                           ",
"                                                        %.2 C &.*.p =.-.;.W t :.M >.) 1 6 b                                                           ",
"                                                      ,.<.1.*.i U 9 2.3.    4.o.5.x 9 < 6.7.                                                          ",
"                                                      8.-.9.*.A J l 0.$     q.w.e.r.p t.q B                                                           ",
"                                                      y.u.x *.*.9 i.@.7.    p.6 :.a.p 9 , E                                                           ",
"                                                      s.6.Y u C k d.c f.    o 3 g.h.j.z R c k.                                                        ",
"                                                      O.q l U U p l.-.e     O z.{ x.c.9 v.& W                                                         ",
"                                                      w M l t.J 9 , [         b._ n.n 9 m.6.M.                                                        ",
"                                                    # N y ) t.J ) M N.        B._ 5.G ) Y 6.`                                                         ",
"                                                    k.& V.l t.>.) C.N.        Z.@.A.#.S.) 0.O.                                                        ",
"                                                    D.t n ) F.S.) G.b.        D.> A.a.S.l ~ B                                                         ",
"                                                    Z.t | J F.S.Y 6 Z.        F > A.H.J.l , E                                                         ",
"                                                    ` @.c.) j.S.S 6             & V h.K.l R c                                                         ",
"                                                    O.G.F.l j.) L.&             > V P.K.t.I.%                                                         ",
"                                                    %.2 F.X.J.J U.%             <.V P.| t.v.%                                                         ",
"                                                    4.0.X.Y.J.J T.%             R.E.W.n t.v.> Q.                                                      ",
"                                                    !.q T X.>.l T.%             R.E.~.r.X.| u.^.                                                      ",
"                                                    z.~ T Y Y t.R c             R.{ ~./.t.m.u.(.                                                      ",
"                                                    z.~ T Y Y T y c             ).G.~.l.l i.6.(.                                                      ",
"                                                    z.M _.j.F.T , t             4.G.W.l.X.i.6.`.                                                      ",
"                                                    z.x.'.j.Y _.2.N             4.{ W.l.T i.6.`.                                                      ",
"                                                    z.x.'.m.m._.].).            [._ W.R Y.i.6.`.                                                      ",
"                                                    R.K '.K.F.T , !             [.G.P.l.T i.6.`.                                                      ",
"                                                    z.K {.K.m.T ].!             [.G.}.l.i.Y.6.y.                                                      ",
"                                                    z.K |.K.m.T ].E             4.G. Xl.T i.6.`.                                                      ",
"                                                    z.E.|.Y.S '..X<.            4.G.a.l.i.XX6.`.                                                      ",
"                                                    N.oXOXY.< _..X<.            !.2 +X/.i.XX6.(.                                                      ",
"                                                    +.6.@X#Xd.i.$Xc             !.%X+Xr.i.L.u.(.                                                      ",
"                                                    &X@.*X#Xd.i.=X%             z.%X-X;XY.:Xu.^.                                                      ",
"                                                    &X@.I.|.| {.=X>X            z.g./.@X| @X> p.                                                      ",
"                                                    +.u.+Xi.#X{.( ,X            z.x.G <X#XT.> p.                                                      ",
"                                                    +.u. X|.XX1X7 a             [ x.r.OX#X2X& p.                                                      ",
"                                                    b.u.P.|.XX1XT./             & , ;X<X'.3X3 F                                                       ",
"                                                    b.> n.4XXX5X@Xo.            % a.6XXX#X7X3 8X                                                      ",
"                                                    p.> K 6XXXXXU.o.            & -X| <XXXK z.                                                        ",
"                                                      u.C.*X#Xd.OX^             u.r.| XXXXE.[.                                                        ",
"                                                      [ o.+X|.S OXE.            u.n #XXX<X@.7.                                                        ",
"                                                      R.oX X5XL.1X%X=         O.2 K.| |.@X& ^.                                                        ",
"                                                      %.G.W.9Xd.1X0XqX        w K j.XXwXeXc =                                                         ",
"                                                      +.6 rX*X4X|.$XtX        w P.J.S yXH.3                                                           ",
"                                                      uX6 g.I.|.4XiX>       F 3 T.j.L.wXA.R.                                                          ",
"                                                      F > g.=X5X<X9X_ s.    b > x X.OXL.{ !.                                                          ",
"                                                        E %XP.OXL.pXV %.    y.@.>.#X<XaX@.sX                                                          ",
"                                                        dX_ 5.I.OXwX].>     N.e.p OXXXfX> M.                                                          ",
"                                                        .._ A.=XOX9XT.> ;.gXc ( ) 9X|.rX3 8X                                                          ",
"                                                        p.> :.h.OXOX:Xa B hXu.c.0 <XwXoX[                                                             ",
"                                                          ! { n.eX9X|.3X>Xt M l XX5XjXt B.                                                            ",
"                                                            @.5.$X9Xd.9X7XK Y.K.6XwX$.c                                                               ",
"                                                            3 K kXaX|.5XpXyXY.x <XU.{  .                                                              ",
"                                                              6.}.].9X<X:X:Xx <XOX3XlXb                                                               ",
"                                                              & K ~.eX5XL.L.L.9XaXE.N                                                                 ",
"                                                                oX7Xn.eXOX|.yXzXA.6 ..                                                                ",
"                                                                D :.P.0Xa.eX=XP.oXt                                                                   ",
"                                                                O.w.:.xXrX~.A.w.t b                                                                   ",
"                                                                  ! w.hXA.n.o.t 7.                                                                    ",
"                                                                    B lX_ 6 3 ..                                                                      ",
"                                                                      ;...b cX                                                                        ",
"                                                                      . X . X                                                                         ",
"                                                                                                                                                      ",
"                                                                                                                                                      ",
"                                                                                                                                                      "
};
