/* XPM */
static char *_416531dab0d4a4f9ca2d17cca9f2251M4QedFPmnm8y769v[] = {
/* columns rows colors chars-per-pixel */
"77 78 225 2 ",
"   c #000101",
".  c #02040B",
"X  c #07080B",
"o  c #010513",
"O  c #030A14",
"+  c #020B1C",
"@  c #090E1C",
"#  c #050918",
"$  c #0C121D",
"%  c #0E1116",
"&  c #10141C",
"*  c #020D24",
"=  c #010D2B",
"-  c #000621",
";  c #041224",
":  c #0C1422",
">  c #02122C",
",  c #0F172C",
"<  c #0F182B",
"1  c #101825",
"2  c #111B2B",
"3  c #000E37",
"4  c #031433",
"5  c #0A1B33",
"6  c #02163B",
"7  c #031B3B",
"8  c #051B33",
"9  c #121D33",
"0  c #101E3B",
"q  c #14262C",
"w  c #0C233C",
"e  c #162334",
"r  c #142934",
"t  c #15233A",
"y  c #19273D",
"u  c #031C43",
"i  c #031D4C",
"p  c #03194A",
"a  c #021D54",
"s  c #03244C",
"d  c #0C294C",
"f  c #082446",
"g  c #162541",
"h  c #182543",
"j  c #1C2C45",
"k  c #122B4C",
"l  c #182D47",
"z  c #1C3647",
"x  c #032454",
"c  c #032955",
"v  c #06245C",
"b  c #032B5B",
"n  c #0A2A56",
"m  c #122E55",
"M  c #1C3354",
"N  c #15355A",
"B  c #0F305D",
"V  c #222E44",
"C  c #24354C",
"Z  c #233553",
"A  c #253A5D",
"S  c #26395C",
"D  c #042663",
"F  c #052B64",
"G  c #0A2D63",
"H  c #052C6A",
"J  c #082D6E",
"K  c #043063",
"L  c #04346B",
"P  c #0C3569",
"I  c #193B69",
"U  c #012D71",
"Y  c #043373",
"T  c #0A3B76",
"R  c #063679",
"E  c #053A7C",
"W  c #093B7A",
"Q  c #153D74",
"!  c #263C62",
"~  c #293F64",
"^  c #283F69",
"/  c #273E68",
"(  c #1E4356",
")  c #194576",
"_  c #1C4665",
"`  c #2B4165",
"'  c #2A436B",
"]  c #27446B",
"[  c #2E4975",
"{  c #2E4979",
"}  c #2B4776",
"|  c #314A73",
" . c #314D7B",
".. c #245478",
"X. c #34507E",
"o. c #375567",
"O. c #376A7E",
"+. c #33667B",
"@. c #5D6A75",
"#. c #063C83",
"$. c #093C81",
"%. c #053E8B",
"&. c #06438D",
"*. c #09438C",
"=. c #0A4689",
"-. c #134A89",
";. c #064493",
":. c #084493",
">. c #064A9B",
",. c #084C9D",
"<. c #074896",
"1. c #15579B",
"2. c #155191",
"3. c #245B89",
"4. c #345281",
"5. c #39598D",
"6. c #375689",
"7. c #3A5C93",
"8. c #2A538D",
"9. c #2E678E",
"0. c #366B86",
"q. c #3A7187",
"w. c #3A728B",
"e. c #29689A",
"r. c #3E629B",
"t. c #3A6598",
"y. c #3B7798",
"u. c #064DA3",
"i. c #084DA1",
"p. c #044FAA",
"a. c #0950A4",
"s. c #0550AA",
"d. c #0853AA",
"f. c #0D58AD",
"g. c #135AA4",
"h. c #135DAB",
"j. c #185EA6",
"k. c #0959B3",
"l. c #0758B7",
"z. c #105EB1",
"x. c #1C63A6",
"c. c #1962A9",
"v. c #1564B6",
"b. c #2066A5",
"n. c #2268A7",
"m. c #236BA9",
"M. c #276CA5",
"N. c #2D72A6",
"B. c #2B73AC",
"V. c #3276A5",
"C. c #3478A6",
"Z. c #3B7CA3",
"A. c #347CAB",
"S. c #357AA9",
"D. c #2A6FB2",
"F. c #2C79B4",
"G. c #2673B4",
"H. c #3679B5",
"J. c #3A6EBA",
"K. c #415D8F",
"L. c #43649B",
"P. c #426195",
"I. c #467A9B",
"U. c #456BAB",
"Y. c #486EAC",
"T. c #4468A4",
"R. c #4575A7",
"E. c #4770B1",
"W. c #4A73B5",
"Q. c #4B76BA",
"!. c #4976BC",
"~. c #476FB2",
"^. c #085CC2",
"/. c #0B63CA",
"(. c #4E7CC4",
"). c #517EC9",
"_. c #517CC2",
"`. c #3D82A5",
"'. c #3B82AA",
"]. c #3983B4",
"[. c #43859E",
"{. c #47889E",
"}. c #4587A3",
"|. c #4789A4",
" X c #498AA4",
".X c #4286A9",
"XX c #458AAB",
"oX c #498CAC",
"OX c #4887AF",
"+X c #4C91AD",
"@X c #4D91A7",
"#X c #4B89B5",
"$X c #4C89B8",
"%X c #4489B2",
"&X c #5291B3",
"*X c #6BA0B9",
"=X c #5382CD",
"-X c #538ACC",
";X c #508FC1",
":X c #5586D3",
">X c #578AD7",
",X c #5789D9",
"<X c #598BDB",
"1X c #5890D8",
"2X c #5597C8",
"3X c #6DA2C6",
"4X c #79ABCC",
"5X c #5A8EE1",
"6X c #5C91E5",
"7X c #5E94EA",
"8X c #5E95EB",
"9X c #5F97F0",
"0X c #5F98F1",
"qX c #6097EE",
"wX c #6099EE",
"eX c #6199F3",
"rX c #649EFA",
"tX c #66A1FF",
"yX c #8DB7D6",
"uX c #9AC3E3",
"iX c #A9CDEB",
"pX c #A9D3F4",
"aX c #B6D9FB",
"sX c #99D9EA",
"dX c #99D9EA",
/* pixels */
"sXsXsXsXsXsXsXsXsXsXsXsXsXsXsXsXsXsXsXsXsXsXsXsXsXsXsXsXsXsXsXsXsXsXsXsXsXsXsXsXsXsXsXsXsXsXsXsXsXsXsXsXsXsXsXsXsXsXsXsXsXsXsXsXsXsXsXsXsXsXsXsXsXsXsXsXdX",
"sXsXsXsX4.[ { { { { { { >XsXsXsXsXsXsXsXsXsXsXsXsXsXsXsXsXsXsXsXsXsXsXsXsXsXsXsXsXsXsXsXsXsXsXsXsXsXsXsXsXsXsXsXsXsXsXsXsXsXsX6XU.] { { { { { [ Q.sXsXsXdX",
"sXsXsXsX$             [ <XsXsXsXsXsXsXsXsXsXsXsXsXsXsXsXsXsXsXsXsXsXsXsXsXsXsXsXsXsXsXsXsXsXsXsXsXsXsXsXsXsXsXsXsXsXsXsXsXsXsX5XQ.@             6.sXsXsXdX",
"sXsXsXsX9           / 5X5XsXsXsXsXsXsXsXsXsXsXsXsXsXsXsXsXsXsXsXsXsXsX,XqXU.X.5X5X<XsXsXsXsXsXsXsXsXsXsXsXsXsXsXsXsXsXsXsXsXsX<X8XU.            5.sXsXsXdX",
"sXsXsXsX,     l.P 7X<XsXsXsXsXsXsXsXsXsXsXsXsXsXsXsXsXsXsXsXsXsXsX,XqX7.@   .   S :X5X<XsXsXsXsXsXsXsXsXsXsXsXsXsXsXsXsXsXsXsXsXsX,X(./ /.u     5.sXdXdXdX",
"sXsXsXsX,     x b 8X<XsXsXsXsXsXsXsXsXsXsXsXsXsXsXsXsXsXsXsXsXsX,XqX[ .   = u .   9 (.6XsXsXsXsXsXsXsXsXsXsXsXsXsXsXsXsXsXsXsXsXsX,XT.k <.f     5.sXdXdXdX",
"sXsXsXsX,     ] s C qXsXsXsXsXsXsXsXsXsXsXsXsXsXsXsXsXsXsXsXsX>X6X7..   * Y %.p o   h :X<XsXsXsXsXsXsXsXsXsXsXsXsXsXsXsXsXsXsXsX>XeXd b m +     5.dXdXdXdX",
"sXsXsXsX<     :X| b A <X5XsXsXsXsXsXsXsXsXsXsXsXsXsXsXsXsXsXsXeX~.@   * U j.B.:.u .   ! <XsXsXsXsXsXsXsXsXsXsXsXsXsXsXsXsXsXsX>X9XL.x d U.$     5.dXdXdXdX",
"sXsXsXsX,   / 7X:XF f { <XsXsXsXsXsXsXsXsXsXsXsXsXsXsXsXsXsX,XU.9   * U j.'. XN.:.u .   ,X<XsXsXsXsXsXsXsXsXsXsXsXsXsXsXsXsX<X5XQ.k m K.qXT.<   7.sXsXsXsX",
"sXsXsXsX9 4.8X,X6X| c s  .9X>XsXsXsXsXsXsXsXsXsXsXsXsXsXsXsX<XY.e + #.m.}. X}. XS.a.i o ,XsXsXsXsXsXsXsXsXsXsXsXsXsXsXsXsX>X6X_.d x W.eXsXsX).t 4.sXsXsXsX",
"sXsXsXsX!.5X,XsX>X7XL.f b Z 0X,XsXsXsXsXsXsXsXsXsXsXsXsXsXsXsX7X=X~.H.}.}.}.}..X}.`.!.!.<XsXsXsXsXsXsXsXsXsXsXsXsXsXsXsX>XeXU.5 b ! 7X:XsXsX6X).(.5XsXsXsX",
"sXsXsXsXsXsXsXsXsX<X7X6.s L V 0X,X,X,XsXsXsXsXsXsXsXsXsXsXsXsX<X<XqXOX}.|.}.}.}.}.{.>X6XsXsXsXsXsXsXsXsXsXsXsXsXsX,X<X:XeXL.w Y l :X,XsXsXsXsXsXsXsXsXsXsX",
"sXsXsXsXsXsXsXsXsXsX<X6X=X` c c S A A 6XsXsXsXsXsXsXsXsXsXsXsXsXsX5XOX}.|.}.|.}.}.}.-X5XsXsXsXsXsXsXsXsXsXsXsX<XW.A A ` m s m P.8X,XsXsXsXsXsXsXsXsXsXsXsX",
"sXsXsXsXsXsXsXsXsXsXsX,X6X<XX.7       ` <XsXsXsXsXsXsXsXsXsXsXsXsX<XOX{..X|.}.}.}.}.-X5XsXsXsXsXsXsXsXsXsXsX,X6X1       + I W.0X,XsXsXsXsXsXsXsXsXsXsXsXsX",
"sXsXsXsXsXsXsXsXsXsXsXsX,X7X=X  7 b O   / 6XsXsXsXsXsXsXsXsXsXsXsX<X#X}.}.}.}.}.|.}.-X5XsXsXsXsXsXsXsXsXsX,X6XW.O i + T   S tX:XsXsXsXsXsXsXsXsXsXsXsXsXsX",
"sXsXsXsXsXsXsXsXsXsXsX<X6XW.1     c L u j 5XsXsXsXsXsXsXsXsXsXsXsXsXOX}.|.}.|.}.}.}.-X<XsXsXsXsXsXsXsXsXsX<X6XL.6 ; =..   O ~ 7X,XsXsXsXsXsXsXsXsXsXsXsXsX",
"sXsXsXsXsXsXsXsXsXsXsX,X7XU.    E.} s . Z 8X>XsXsXsXsXsXsXsXsXsXsX7XOX}.}.}.|.}..X[.1X5XdXdXdXdXsXsXsXsXsX,X7XW.7 R w W.Z   e eX,XsXsXsXsXsXsXsXsXsXsXsXsX",
"sXsXsXsXsXsXsXsXsXsXsXsX5X=Xr.r.rX6.  K @ 5.7XsXsXsXsXsXsXsXsX<X5X[ q.oX}.}.}.}.}. X] W.dXdXdXdXsXsXsXsXsX6X=Xe L > $ eX(.r.E.5XsXsXsXsXsXsXsXsXsXsXsXsXsX",
"sXsXsXsXsXsXsXsXsXsXsXsXsX5X7X6XqX4.. d c X [ <XdX<X6X<XsXsXsX<X4.= w.OX}.}.}.}.}.+XB 0 dXdXdXdX5X<X<X5X6X!.1 + 7 > $ <X5X7X6XsXsXsXsXsXsXsXsXsXsXsXsXsXsX",
"sXsXsXsXsXsXsXsXsXsXsXsXsXsX,X,XqX4.o *.J 4   S qX:X>X1XsXsX>X` + D y.oX}.}.|.}.}. X) u :X<XdXdX,X,X:X6XW..   v ;.u 1 6X<X<X<XsXsXsXsXsXsXsXsXsXsXsXsXsXsX",
"sXsXsXsXsXsXsXsXsXsXsXsXsXsXsXsX<XeX5.l.x.m.c.[.q.q.q.1.$ 4.rXX   6 y.|.}.}.}.}.}. X_ o $ =X,X: &.q.q.q.y.S.f.N.L & 8X<XsXsXsXsXsXsXsXsXsXsXsXsXsXsXsXsXsX",
"sXsXsXsXsXsXsXsXsXsXsXsXsXsXsXsXsXsX>X7 a.B.B.m.'.B.+X%X#.n Y.  ; = 0.oX}.}.}.}.}.oXl =   Y.! =.A.+XXXB.Z.c.A.v.M (.sXsXsXsXsXsXsXsXsXsXsXsXsXsXsXsXsXsXsX",
"sXsXsXsXsXsXsXsXsXsXsXsXsXsXsXsXsXsX5XL.c =.,.k.c.Z.y.e.l.>.d   O . O.oX}.}.}.}.}.oXq o   5 R k.g.y.Z.N.k.s.2.L =X6XsXsXsXsXsXsXsXsXsXsXsXsXsXsXsXsXsXsXsX",
"sXsXsXsXsXsXsXsXsXsXsXsXsXsXsXsXsXsXsX7Xr.O d i.>.W x a a.#.<.  > + O.oX}.}.}.}.}.XXr 4   &.$.;.x x v <.,.=.O y 5X<XsXsXsXsXsXsXsXsXsXsXsXsXsXsXsXsXsXsXsX",
"sXsXsXsXsXsXsXsXsXsXsXsXsXsXsXsXsXsXsXsX,X8X4.. X .     + ;.R >     0.XX}.}.}.}.}.oXr   x F <.  .   X . . 1 sXsXsXsXsXsXsXsXsXsXsXsXsXsXsXsXsXsXsXsXsXsXsX",
"sXsXsXsXsXsXsXsXsXsXsX<XsXsXsXsXsXsXsXsXsX<X<X=X=X6Xj c   4 ,.*.b   q.oX}.}.}.}.}.+Xq   H i.L O <.. W.:X=X=XsXsXsXsXsXsXsXsXsXsXsXsXsXsXsXsXsXsXsXsXsXsXsX",
"sXsXsXsXsXsXsXsXsXsXsX6XsXsXsXsXsXsXsXsXsXsX<X6X<X6X6XA L . u F H o 9.oX}.}.}.}.}.XXt 3 p v O T ; Q.5X6X6X<XsXsXsXsXsXsXsXsXsXsX5X5XdXdXsXsXsXsXsXsXsXsXsX",
"sXsXsXsXsXsXsXsXsXsX5XW.,XsXsXsXsXsXsXsXsXsXsXsXsX>XeXA f b   E 1./ <.N.}.|.}. XZ.v.W { 7   > .   >X5X<XsXsXsXsXsXsXsXsXsXsXsX5X(.).,XdXsXsXsXsXsXsXsXsXsX",
"sXsXsXsXsXsXsXsXsXW.  Q ,X,X>X>X>X>X,X>X>X>X>X>X>X>X:X9X    ) @.aXiX&Xb.p.N. Xd.f.Z.yXpXX &.; : 1X<X>X>X<X>X>X<X>X1X>X<X>X>X>X1XJ.o 5XdXsXsXsXsXsXsXsXsXsX",
"sXsXsXsXsXsXsX<X7X    1..X}.}.|.}.}.|.}.|.|.}.}.|.|.}. X4     ( 4X3X}. Xc.N. Xh.Z. XXXyX.     P }.|.}.}.}.}.}.}.}.}.}.}.}.|.}. XF.s ! 7X<XsXsXsXsXsXsXsXsX",
"sXsXsXsXsXsXsX7X7.    g..X}.}.}.}.}.}.}..X}.}.}..X}.}.}...  . 4 , $.e. XXXC.C.}.oXy.2.v 7 @   .X}.}.}.}.}.}.}.}.}.}.}.}.}.}.}.[.F.s   j <X<XsXsXsXsXsXsXsX",
"sXsXsXsXsXsX,X7.O     -.|. X X X X X X X X X X X X X X X'._ d > > u D ..[.S.b.}.w.P v > * x z  X X X X X X X X X X X X X X X X XN.7     >X6X,XsXsXsXsXsXsX",
"sXsXsXsXsXsX6XO       G V.C.C.C.C.C.C.C.C.C.C.C.C.V.C.C.V.].) 4 4 R v D e.A.C.C.W v J F v v e.C.S.C.C.C.C.C.C.C.C.C.C.C.C.C.C.S.3.*     ] ,X6X<XsXsXsXsXsX",
"sXsXsXsXsX6XE.        F p.s.p.p.s.s.s.s.s.s.s.s.s.s.s.s.p.p.#.D D %.R i.p.p.p.s.k.R %.J v J >.p.s.s.s.s.p.p.p.p.s.s.p.p.p.s.p.s.;.*       ' <X5X<XsXsXsXsX",
"sXsXsXsX6XE.          F a.f.d.d.d.d.d.d.d.d.f.s.d.d.f.a.a.f.k.v v G i.d.d.d.d.d.a.k.R v H a.d.d.d.a.d.f.f.d.f.d.d.d.d.d.d.d.d.f.:.*     .   ~ 5X<XsXsXsXsX",
"sXsXsXsXr.            F a.s.d.d.s.d.a.f.s.d.d.d.d.d.s.f.s.a.d.*.F $.d.d.d.d.d.d.d.d.,.H d.d.s.f.s.f.s.s.s.d.s.d.d.d.d.d.d.d.d.d.;.;           j :XsXsXsXsX",
"sXsXsX>X~             F d.d.s.d.d.d.d.d.d.d.d.d.s.d.d.d.d.d.a.i.R Y d.d.d.d.d.d.s.d.&.H d.d.s.a.f.s.s.d.d.d.d.d.d.d.d.d.d.d.d.d.:.*           : W.5X<XsXsX",
"sXsXsX,X~             F d.s.d.d.d.d.d.s.d.s.d.s.d.d.s.d.d.s.s.,.J J u.d.d.d.d.d.f.d.%.F d.d.d.f.f.s.d.d.d.d.d.s.d.d.d.d.d.d.d.d.:.*           : E.6X<XsXsX",
"sXsXsX5XsXj           F a.f.s.f.d.d.d.f.f.a.d.d.a.f.f.d.d.f.d.J a $.d.d.d.d.d.d.d.d.<.F ;.d.f.s.a.f.a.d.d.f.s.d.d.d.d.d.d.d.d.d.:.*         : r.eX,XsXsXsX",
"sXsXsXsXsX6Xy         F p.s.s.s.a.p.p.p.s.s.s.s.p.s.s.s.s.s.u.v F F :.d.d.p.p.p.k.i.R v v ;.s.s.s.s.s.s.s.s.s.a.s.p.s.s.s.s.s.s.;.*       $ L.qX>XsXsXsXsX",
"sXsXsXsXsX<X6X        v n.n.n.n.x.M.x.m.x.m.M.x.b.b.m.b.n.G.T u p %.G U g.m.M.n.&.D $.J F v b.n.b.m.m.b.b.b.b.b.x.M.x.m.M.x.x.B.-.*     e Q.6X<XsXsXsXsXsX",
"sXsXsXsXsXsX<X .      -.|. X|.|.|. X X X X X X X X X|.|.'...B > 5 u a } [.V.b..X9.v a 5 * v M  X X}. X X X XoX}. X X}. X|. X X XN.4     =X6X<XsXsXsXsXsXsX",
"sXsXsXsXsXsXsX5X~     a..X}..X|..X.X}. X|.|..X|.}.}.}.}.9.O * > + D 2.}.@XV.b.}.@X9.W 3 4 4 . +X}.}.}.|.}..X}.}.}.}.|.|.|.|..X{.F.s   : 6X<XsXsXsXsXsXsXsX",
"sXsXsXsXsXsXsX6X>X  . 1..X[.[.{.}.[.{.[.}.[.[.}.}.[.}.}.M     w | B.'. XC.`. XV.}.@XB.r.u     9.[.}.{.[.}.}.[.}.[.}.[.}.}.[.[.{.G.c : 7.>XsXsXsXsXsXsXsXsX",
"sXsXsXsXsXsXsX<X5Xj   -.$X$X$X#X$X$X$X$X#X$X$X$X$X$X#X2X-   5 o.pXyX XZ.f.M.|.s.M.}.*XiX  5   f ;X$X$X$X$X$X$X$X$X$X$X$X#X$X#X$XH.4 r.eXsXsXsXsXsXsXsXsXsX",
"sXsXsXsXsXsXsXsX,X7X' g ).5X5X5X5X5X5X5X5X5X5X5X5X<X6XU.  8 J I.iXuXS.s.j.`.|.N.p.j.3XpXP K c X  .,X5X5X5X5X5X5X5X5X5X5X5X5X<X9X8.9 qX,XsXsXsXsXsXsXsXsXsX",
"sXsXsXsXsXsXsXsXsXsX<X5XsXsXdXdXdXdXsXsXsXsX,X,X<X:XtXA W + * x H = 3.oX|.}.}.}.}.A.d p 4 4   L   5X5X,X,X<XdXdXdXdXsXsXsXsXsXsX6X5XsXsXsXsXsXsXsXsXsXsXsX",
"sXsXsXsXsXsXsXsXsXsXsX<XsXsXdXdXdXdXsXsXsX,X6X0XwXtXL.N 7 . $.R F . q.oX}..X}.}.}.+Xq * J :.6 F P ^ 5XeX9X8X,XdXdXdXsXsXsXsXsXsXsXsXsXsXsXsXsXsXsXsXsXsXsX",
"sXsXsXsXsXsXsXsXsXsXsXsXsXsXsXsXsXsXsXsXsXqXW.[ | X.% 4   F ;.L 4   q.oX}.}.|.|.}.oXq   D #.%.  F   ` | [ X.7X6XsXsXsXsXsXsXsXsXsXsXsXsXsXsXsXsXsXsXsXsXsX",
"sXsXsXsXsXsXsXsXsXsXsXsXsXsXsXsXsXsXsX6XW.Z m b c 6 4 > E %.*.  + O +.oX}.|.}.}.}.oXr * * $.%.K * 6 = c c c C | ,XsXsXsXsXsXsXsXsXsXsXsXsXsXsXsXsXsXsXsXsX",
"sXsXsXsXsXsXsXsXsXsXsXsXsXsXsXsXsXsX>X=Xw R ;.l.v.`.y.1.f.s.s   .   O.oX}.}.}.}.}.oXr .   + &.d.>.y.Z.F.l.k.#.c 0X>XsXsXsXsXsXsXsXsXsXsXsXsXsXsXsXsXsXsXsX",
"sXsXsXsXsXsXsXsXsXsXsXsXsXsXsXsXsX>X7X2 %.G.c.h.N.M. X}.^.b [   > O O.oX}.}.}.}.}.oXq >   6.f v.S. XR.b.e.p.].s.` rX,XsXsXsXsXsXsXsXsXsXsXsXsXsXsXsXsXsXsX",
"sXsXsXsXsXsXsXsXsXsXsXsXsXsXsXsX<X7XE.Y v.N.M.|.%X].@X].> M qX  + 6 w.XX}.}..X}.}.oXN +   =Xr.7 G.oXoX].+XC.M.B.d ' 6X<XsXsXsXsXsXsXsXsXsXsXsXsXsXsXsXsXsX",
"sXsXsXsXsXsXsXsXsXsXsXsXsXsXsXsX>X0X6./.j.h.z.3.y C ( d X.E.qX9 . 4 w.oX}.}.}.}.}.oXm * [ :X5X' s z z z ( m.d.x.Y % 9X<XsXsXsXsXsXsXsXsXsXsXsXsXsXsXsXsXsX",
"sXsXsXsXsXsXsXsXsXsXsXsXsXsX,X>X0XX.. > T   j <XwX8X8X8X>X>XsX>XS 3 Z.}.}.}.}.}.}.oX) * <XsXsX,X7X7X7X8X8XL.  7 > i % 5X<X<X<XsXsXsXsXsXsXsXsXsXsXsXsXsXsX",
"sXsXsXsXsXsXsXsXsXsXsXsXsX<X7X6X8X5.  &.. Z <X5X1X1X1X<XdXdXsX6X:Xt +.oX}.|.|.}.}.oXr 6.sXsXsXsX>X,X<X,XsX6XU.  Y   2 <X<X7X6XsXsXsXsXsXsXsXsXsXsXsXsXsXsX",
"sXsXsXsXsXsXsXsXsXsXsX<X6X!.e j tX4.+ ; t =X5X<XsXsXsXsXsXsXsX<X6XQ.[.}.}.}.}.}.}.|.R.,XsXsXsXsXsXsXsXsXsXsX7XX.c L % tXr.e ' wX,XsXsXsXsXsXsXsXsXsXsXsXsX",
"sXsXsXsXsXsXsXsXsXsXsX<X7XU.    M N K ; z 7X<XsXsXsXsXsXsXsXsXsX<X6X#X}.}.}.}.|.}.[.>X5XsXsXsXsXsXsXsXsXsX<X6XY.7 c P M $   j wX,XsXsXsXsXsXsXsXsXsXsXsXsX",
"sXsXsXsXsXsXsXsXsXsXsXsXsX<X7.  O c > o Z 5XsXsXsXsXsXsXsXsXsXsXsXsXOX[.}.}.}.}.}.}.-X5XsXsXsXsXsXsXsXsXsX,X6XU.* 8 u s   j =XsXsXsXsXsXsXsXsXsXsXsXsXsXsX",
"sXsXsXsXsXsXsXsXsXsXsXsX<X6X(.  . .   1 ,XsXsXsXsXsXsXsXsXsXsXsXsX<X#X}..X}.|.}.}.}.-X5XsXsXsXsXsXsXsXsXsXsX,X7X  .   O   S eX>XsXsXsXsXsXsXsXsXsXsXsXsXsX",
"sXsXsXsXsXsXsXsXsXsXsX>X7XY.@ <.      <XsXsXsXsXsXsXsXsXsXsXsXsXsX<XOX}.|.}.|.}.}.}.-X5XsXsXsXsXsXsXsXsXsXsXsXsX6.      b K V 0X>XsXsXsXsXsXsXsXsXsXsXsXsX",
"sXsXsXsXsXsXsXsXsXsX,X0XU.5 E ; !.!.Q.6XsXsXsXsXsXsXsXsXsXsXsXsXsXsXOX}.}.}..X}.|.[.-X<XsXsXsXsXsXsXsXsXsXsXsXsX,XQ.!.=X` u L C 0X<XsXsXsXsXsXsXsXsXsXsXsX",
"sXsXsXsX=X<XsXsXsX5XW.d c M =X6X,X<X<XsXsXsXsXsXsXsXsXsXsXsXsX5X:X(.H. X X}. X}.}.`.(.).sXsXsXsXsXsXsXsXsXsXsXsXsX<X<X<X6X<X6.f s { 5X,XsXsXsXsXsXsXsXsXsX",
"sXsXsXsXh !.5XsXsXQ.; F S <X6X>XsXsXsXsXsXsXsXsXsXsXsXsXsXsXsX5X/ = >.S. X}.}.}.}.h.H ; sXsXsXsXsXsXsXsXsXsXsXsXsXsXsXsX<XsX8XL.c u 6XsXsXsX5X/ 4.sXsXsXsX",
"sXsXsXsX, o =X<X6XO &.y =X6X,XsXsXsXsXsXsXsXsXsXsXsXsXsXsXsX,X]   o i >.S.}..X}.h.U *   =X5XsXsXsXsXsXsXsXsXsXsXsXsXsXsXsXsX<X7X| L Z 7X<X7X'   5.sXsXsXsX",
"sXsXsXsX,   # qXE.;.+ !.5XdXdXdXsXsXsXsXsXsXsXsXsXsXsXsXsXsXsX5X^   . i >.S.|.h.U *   # sXsXsXsXsXsXsXsXsXsXsXsXsXsXsXsXsXsXsX<X7XC F Z 7XS     5.sXsXsXsX",
"sXsXsXsX,     7.m t Q.<XdXdXdXdXsXsXsXsXsXsXsXsXsXsXsXsXsXsXsX5X,XA   . u *.g.H *   @ Y.sXsXsXsXsXsXsXsXsXsXsXsXsXsXsXsXsXsXsXsX<X,Xs b ] O     5.sXsXsXsX",
"sXsXsXsX,     n n =X6XsXdXdXdXdXsXsXsXsXsXsXsXsXsXsXsXsXsXsXsXsX5X<XZ .   6 a o   : T.qXsXsXsXsXsXsXsXsXsXsXsXsXsXsXsXsXsXsXsXsX<X5X5.d %.7     5.sXsXsXsX",
"sXsXsXsX<     i.d 7X<XsXsXsXsXsXsXsXsXsXsXsXsXsXsXsXsXsXsXsXsXsXsXsXqXS .   .   $ Q.7X<XsXsXsXsXsXsXsXsXsXsXsXsXsXsXsXsXsXsXsXsXsX<X5X ./.7     5.sXsXsXdX",
"sXsXsXsX,     a.R ).5XsXsXsXsXsXsXsXsXsXsXsXsXsXsXsXsXsXsXsXsXsXsXsX:XeX!   . @ ).6X<XsXsXsXsXsXsXsXsXsXsXsXsXsXsXsXsXsXsXsXsXsX<X<X~ = ,.7     5.sXsXsXdX",
"sXsXsXsX$           . r.sXsXsXsXsXsXsXsXsXsXsXsXsXsXsXsXsXsXsXsXsXsXsXsXsX,X:XsXsXsXsXsXsXsXsXsXsXsXsXsXsXsXsXsXsXsXsXsXsXsXsXsX:Xl             5.sXdXdXdX",
"sXsXsXsXS t h g h h 0 ! ,X<XsXsXsXsXsXsXsXsXsXsXsXsXsXsXsXsXsXsXsXsXsXsXsX<X5XsXsXsXsXsXsXsXsXsXsXsXsXsXsXsXsXsXsXsXsXsXsXsXsXsXL.t g g g y h t 7.dXdXdXdX",
"sXsXsXsXsXsXsXsXsXsXsXsXsXsXsXsXsXsXsXsXsXsXsXsXsXsXsXsXsXsXsXsXsXsXsXsXsXsXsXsXsXsXsXsXsXsXsXsXsXsXsXsXsXsXsXsXsXsXsXsXsXsXsXsXdXdXdXdXdXdXdXdXdXdXdXdXdX",
"sXsXsXsXsXsXsXsXsXsXsXsXsXsXsXsXsXsXsXsXsXsXsXsXsXsXsXsXsXsXsXsXsXsXsXsXsXsXsXsXsXsXsXsXsXsXsXsXsXsXsXsXsXsXsXsXsXsXsXsXsXsXsXsXdXdXdXdXdXdXdXdXdXdXdXdXdX",
"sXsXsXsXsXsXsXsXsXsXsXsXsXsXsXsXsXsXsXsXsXsXsXsXsXsXsXsXsXsXsXsXsXsXsXsXsXsXsXsXsXsXsXsXsXsXsXsXsXsXsXsXsXsXsXsXsXsXsXsXsXsXsXsXdXdXdXdXdXdXdXdXdXdXdXdXdX",
"sXsXsXsXsXsXsXsXsXsXsXsXsXsXsXsXsXsXsXsXsXsXsXsXsXsXsXsXsXsXsXsXsXsXsXsXsXsXsXsXsXsXsXsXsXsXsXsXsXsXsXsXsXsXsXsXsXsXsXsXsXsXsXsXdXdXdXdXdXdXdXdXdXdXdXdXdX",
"sXsXsXsXsXsXsXsXsXsXsXsXsXsXsXsXsXsXsXsXsXsXsXsXsXsXsXsXsXsXsXsXsXsXsXsXsXsXsXsXsXsXsXsXsXsXsXsXsXsXsXsXsXsXsXsXsXsXsXsXsXsXsXsXdXdXdXdXdXdXdXdXdXdXdXdXdX",
"sXsXsXsXsXsXsXsXsXsXsXsXsXsXsXsXsXsXsXsXsXsXsXsXsXsXsXsXsXsXsXsXsXsXsXsXsXsXsXsXsXsXsXsXsXsXsXsXsXsXsXsXsXsXsXsXsXsXsXsXsXsXsXsXdXdXdXdXdXdXdXdXdXdXdXdXdX"
};
