/* XPM */
static char *result[] = {
/* columns rows colors chars-per-pixel */
"74 74 6 1 ",
"  c #AA9AAA",
". c #908D9D",
"X c #7A7A8D",
"o c #A7ADAA",
"O c #727183",
"+ c #6D6D7D",
/* pixels */
"  .X.X.Xooo.X.X    XX.Xooo...X..        .X.X.Xooo.X.X    XX.Xooo...X..    ",
"..X.X.X.oooX.XX . .X.X.   XXX.X.X.......X.X.X.oooX.XX . .X.X.   XXX.X.X...",
".X.XXXXX   XXXX. . XXXX...XXXXXX.X.....X.XXXXX   XXXX. . XXXX...XXXXXX.X..",
"..XXXXXX...XXXX....XXXX...XXXXXXX.......XXXXXX...XXXX....XXXX...XXXXXXX...",
".X.XXOOO...OOOOX...OOOO...OOOXXX.X.....X.XXOOO...OOOOX..XOOOO...OOOXXX.X..",
"   ..XOOOOOOOOOOOOOOOOOOOOOOOX..         ..XOOOOOOOOOOOOOOOOOOOOOOOX..    ",
"   ...+OOOOOOOOOO++OOOOOOOOOO...         ...+OOOOOOOOOO++OOOOOOOOOO...    ",
"  . ..+OOOOOOOOOOO+OOOOOOOOOO.. .       . ..+OOOOOOOOOOO+OOOOOOOOOO.. .   ",
"   ...+OOOOOOOOOOOOOOOOOOOOOO...         ...+OOOOOOOOOOO+OOOOOOOOOO...    ",
"   ...+OOOOOOOOOOOOOOOOOOOOOO...         ...+OOOOOOOOOOO+OOOOOOOOOO...    ",
"  . .X+OOOOOOOOOOOOOOOOOOOOOOX. .       . .X+OOOOOOOOOOO+OOOOOOOOOOX. .   ",
".X.XXO+OOOOOOOOOOOOOOOOOOOOOOOXXX......X.XXO+OOOOOOOOOOO+OOOOOOOOOOOXXX...",
"..XXXO+OO+++++++OOOOOOOOOOOOOOXX.X......XXXO+OOO++++++OOOOOOOOOOOOOOXX.X..",
".X.XXO++++++++OOOOOOOOOOOOOOOOXXX......X.XXO++++++++OOOOOOOOOOOOOOOOXXX...",
"XXXXXO++++++OOOOOOOOOOOOOOOOOOXXXXXXXXXXXXXO++++++OOOOOOOOOOOOOOOOOOXXXXXX",
"   ..X+++++OOOOOOOOOOOOOOO+OOX..         ..X+++++OOOOOOOOOOOOOOO++OX..    ",
"  . ..+++OOOOOOOOOOOOOOOO++OO.. .       . ..++++OOOOOOOOOOOOOOO+++O.. .   ",
"   ...+++OOOOOOOOOOOOOOOO++OO...         ...++++OOOOOOOOOOOOOOO+++O...    ",
"  . ..++OOOOOOOOOOOOOOOO++OOO.. .       . ..++OOOOOOOOOOOOOOOO++OOO.. .   ",
"  . .X+OOOOOOOOOOOOOOOOOOOOOOX. .       . .X+OOOOOOOOOOOOOOOOOOOOOOX. .   ",
"XXXXXO+OOOOOOOOOOOOOOOOOOOOOOOXXXXXXXXXXXXXO+OOOOOOOOOOOOOOOOOOOOOOOXXXXXX",
"..XXXO+OOOOOOOOOOOOOOOOOOOOOOOXX.X......XXXO+OOOOOOOOOOOOOOOOOOOOOOOXX.X..",
".X.XXO+OOOOOOOOOOOOOOOOOOOOOOOXXX......X.XXO+OOOOOOOOOOOOOOOOOOOOOOOXXX...",
"..XXXO+OOOOOOOOOOOOOOOOOOOOOOOXX.X......XXXO+OOOOOOOOOOOOOOOOOOOOOOOXX.X..",
"   ..X+OOOOOO+OOOOOOOOOOOOOOOX..         ..X+OOOOOO+OOOOOOOOOOOOOOOX..    ",
"  . ..+OOOOOO++OOOOOOOOOOOOOO.. .       . ..+OOOOOO++OOOOOOOOOOOOOO.. .   ",
"   ...+OOOOOOO+++OOOOOOOOOOOO...         ...+OOOOOOO+++OOOOOOOOOOOO...    ",
"  . ..+OOOOOOOO++++OOOOOOOOOO.. .       . ..+OOOOOOOO++++OOOOOOOOOO.. .   ",
"  . ..+OOOOOOOO++++OOOOOOOOOO.. .       . ..+OOOOOOOO++++OOOOOOOOOO.. .   ",
"   ...+++++++++++++++++++++OO...         ...++++++++++++++++++++++O...    ",
"  . .XOOOOOOOOOOOOOOOOOOOOOOOX. .       . .XOOOOOOOOOOOOOOOOOOOOOOOX. .   ",
"..XXXOOO...OOOOX...OOOO...OOOXXXX.......XXXOOO...OOOOX..XOOOO...OOOXXXX...",
"..XXXXXX   XXXX. . XXXX...XXXXXXX.......XXXXXX   XXXX. . XXXX...XXXXXXX...",
".X.X.X.XoooX.XX . .X.X.   XXXXXX.X.....X.X.X.XoooX.XX . .X.X.   XXXXXX.X..",
"  ....X.ooo.X.X    XX.Xooo......        ....X.ooo.X.X    XX.Xooo......    ",
"  ......ooo...X    X...ooo......        ......ooo...X    X...ooo......    ",
"  ......ooo...X    X...ooo......        ......ooo...X    X...ooo......    ",
"  ......ooo...X    X...ooo......        ......ooo...X    X...ooo......    ",
"  .X.X.Xooo.X.X    XX.Xooo...X..        .X.X.Xooo.X.X    XX.Xooo...X..    ",
"..X.X.X.oooX.XX . .X.X.   XXX.X.X.......X.X.X.oooX.XX . .X.X.   XXX.X.X...",
".X.XXXXX   XXXX. . XXXX...XXXXXX.X.....X.XXXXX   XXXX. . XXXX...XXXXXX.X..",
"..XXXXXX...XXXX....XXXX...XXXXXXX.......XXXXXX...XXXX....XXXX...XXXXXXX...",
".X.XXOOO...OOOOX...OOOO...OOOXXX.X.....X.XXOOO...OOOOX..XOOOO...OOOXXX.X..",
"  . ..+++++++++++++++++++++OO.. .       . ..++++++++++++++++++++++O.. .   ",
"   ...+OOOOOOOOOO++OOOOOOOOOO...         ...+OOOOOOOOOO++OOOOOOOOOO...    ",
"  . ..+OOOOOOOOOOO+OOOOOOOOOO.. .       . ..+OOOOOOOOOOO+OOOOOOOOOO.. .   ",
"   ...+OOOOOOOOOOOOOOOOOOOOOO...         ...+OOOOOOOOOOO+OOOOOOOOOO...    ",
"   ...+OOOOOOOOOOOOOOOOOOOOOO...         ...+OOOOOOOOOOO+OOOOOOOOOO...    ",
"  . .X+OOOOOOOOOOOOOOOOOOOOOOX. .       . .X+OOOOOOOOOOO+OOOOOOOOOOX. .   ",
".X.XXO+OOOOOOOOOOOOOOOOOOOOOOOXXX......X.XXO+OOOOOOOOOOO+OOOOOOOOOOOXXX...",
"..XXXO+OO+++++++OOOOOOOOOOOOOOXX.X......XXXO+OOO++++++OOOOOOOOOOOOOOXX.X..",
".X.XXO++++++++OOOOOOOOOOOOOOOOXXX......X.XXO++++++++OOOOOOOOOOOOOOOOXXX...",
"XXXXXO++++++OOOOOOOOOOOOOOOOOOXXXXXXXXXXXXXO++++++OOOOOOOOOOOOOOOOOOXXXXXX",
"   ..X+++++OOOOOOOOOOOOOOO+OOX..         ..X+++++OOOOOOOOOOOOOOO++OX..    ",
"  . ..+++OOOOOOOOOOOOOOOO++OO.. .       . ..++++OOOOOOOOOOOOOOO+++O.. .   ",
"   ...+++OOOOOOOOOOOOOOOO++OO...         ...++++OOOOOOOOOOOOOOO+++O...    ",
"   ...+OOOOOOOOOOOOOOOOO+OOOO...         ...+OOOOOOOOOOOOOOOOO+OOOO...    ",
"  . .X+OOOOOOOOOOOOOOOOOOOOOOX. .       . .X+OOOOOOOOOOOOOOOOOOOOOOX. .   ",
"XXXXXO+OOOOOOOOOOOOOOOOOOOOOOOXXXXXXXXXXXXXO+OOOOOOOOOOOOOOOOOOOOOOOXXXXXX",
"..XXXO+OOOOOOOOOOOOOOOOOOOOOOOXX.X......XXXO+OOOOOOOOOOOOOOOOOOOOOOOXX.X..",
".X.XXO+OOOOOOOOOOOOOOOOOOOOOOOXXX......X.XXO+OOOOOOOOOOOOOOOOOOOOOOOXXX...",
"..XXXO+OOOOOOOOOOOOOOOOOOOOOOOXX.X......XXXO+OOOOOOOOOOOOOOOOOOOOOOOXX.X..",
"   ..X+OOOOOO+OOOOOOOOOOOOOOOX..         ..X+OOOOOO+OOOOOOOOOOOOOOOX..    ",
"  . ..+OOOOOO++OOOOOOOOOOOOOO.. .       . ..+OOOOOO++OOOOOOOOOOOOOO.. .   ",
"   ...+OOOOOOO+++OOOOOOOOOOOO...         ...+OOOOOOO+++OOOOOOOOOOOO...    ",
"  . ..+OOOOOOOO++++OOOOOOOOOO.. .       . ..+OOOOOOOO++++OOOOOOOOOO.. .   ",
"  . ..+OOOOOOOO++++OOOOOOOOOO.. .       . ..+OOOOOOOO++++OOOOOOOOOO.. .   ",
"   ...+++++++++++++++++++++OO...         ...++++++++++++++++++++++O...    ",
"  . .XOOOOOOOOOOOOOOOOOOOOOOOX. .       . .XOOOOOOOOOOOOOOOOOOOOOOOX. .   ",
".X.XXXXX...XXXX....XXXX...XXXXXX.X.....X.XXXXX...XXXX....XXXX...XXXXXX.X..",
"..XXXXXX   XXXX. . XXXX...XXXXXXX.......XXXXXX   XXXX. . XXXX...XXXXXXX...",
".X.X.X.XoooX.XX . .X.X.   XXXXXX.X.....X.X.X.XoooX.XX . .X.X.   XXXXXX.X..",
"  ....X.ooo.X.X    XX.Xooo......        ....X.ooo.X.X    XX.Xooo......    ",
"  ......ooo...X    X...ooo......        ......ooo...X    X...ooo......    "
};
