/* XPM */
static char *_0c36ac889d64452adccbc99d7afde103W21TJ0e9v5EogXB[] = {
/* columns rows colors chars-per-pixel */
"75 76 6 1 ",
"  c #E43834",
". c #52D8FC",
"X c #51DAFE",
"o c #52DCFF",
"O c #BD8590",
"+ c #FF9D97",
/* pixels */
"XXXXXXXXXXXXXXXX++++++++               OOOOOOOOOOOOOO        ++++++++++++++",
"XXXXXXXXXXXXXXXX++++++               OOOOOOOOOO        ++++++++++++XXXXXXXX",
"XXXXXXXXXXXXXXXX++++++               OOOOOOOOOO        ++++++++++++XXXXXXXX",
"XXXXXXXXXXXXXXXX++++++               OOOOOOOOOO        ++++++++++++XXXXXXXX",
"XXXXXXXXXXXXXXXX++++++               OOOOOOOOOO        ++++++++++++XXXXXXXX",
"XXXXXXXXXXXXXXXX++++++               OOOOOOOOOO        ++++++++++++XXXXXXXX",
"XXXXXXXXXXXXXXXX++++++               OOOOOOOOOO        ++++++++++++XXXXXXXX",
"XXXXXXXXXXXXXXXX++++++               OOOOOOOOOO        ++++++++++++XXXXXXXX",
"XXXXXXXXXXXXXXXX++++++               OOOOOOOOOO        ++++++++++++XXXXXXXX",
"XXXXXXXXXXXXXXXX++++++               OOOOOOOOOO        ++++++++++++XXXXXXXX",
"XXXXXXXXXXXXXXXX++++++               OOOOOOOOOO        ++++++++++++XXXXXXXX",
"XXXXXXXXXXXXXXXX++++++               OOOOOOOOOO        ++++++++++++XXXXXXXX",
"XXXXXXXXXXXXXXXX++++++               OOOOOOOOOO        ++++++++++++XXXXXXXX",
"XXXXXXXXXXXXXXXX++++++               OOOOOOOOOO        ++++++++++++XXXXXXXX",
"XXXXXXXXXXXXXXXX++++++               OOOOOOOOOO        ++++++++++++XXXXXXXX",
"XXXXXXXXXXXXXXXX++++++               OOOOOOOOOO        ++++++++++++XXXXXXXX",
"XXXXXXXXXXXXXXXX++++++               OOOOOOOOOO        ++++++++++++XXXXXXXX",
"XXXXXXXXXXXXXXXX++++++               OOOOOOOOOO        ++++++++++++XXXXXXXX",
"XXXXXXXXXXXXXXXX++++++               OOOOOOOOOO        ++++++++++++XXXXXXXX",
"XXXXXXXXXX.XXXXX++++++               OOOOOOOOOO        ++++++++++++XXXXXXXX",
"XXXXXXXXXX.XXXXX++++++               OOOOOOOOOO        ++++++++++++XXXXXXXX",
"XXXXXXXXXX.XXXXX++++++               OOOOOOOOOO        ++++++++++++XXXXXXXX",
"XXXXXXXXXXXXXXXX++++++               OOOOOOOOOO        ++++++++++++XXXXXXXX",
"XXXXXXXXXX.XXXXX++++++               OOOOOOOOOO        ++++++++++++XXXXXXXX",
"XXXXXXXXXXXXXXXX++++++               OOOOOOOOOO        ++++++++++++XXXXXXXX",
"XXXXXXXXXXXXXXXX++++++               OOOOOOOOOO        ++++++++++++XXXXXXXX",
"XXXXXXXXXXXXXXXX++++++               OOOOOOOOOO        ++++++++++++XXXXXXXX",
"XXXXXXXXXXXXXXXX++++++               OOOOOOOOOO        ++++++++++++XXXXXXXX",
"XXXXXXXXXXXXXXXX++++++               OOOOOOOOOO        ++++++++++++XXXXXXXX",
"XXXXXXXXXXXXXXXX++++++               OOOOOOOOOO        ++++++++++++XXXXXXXX",
"XXXXXXXXXXXXXXXX++++++               OOOOOOOOOO        ++++++++++++XXXXXXXX",
"XXXXXXXXXXXXXXXX++++++               OOOOOOOOOO        ++++++++++++XXXXXXXX",
"XXXXXXXXXXXXXXXX++++++               OOOOOOOOOO        ++++++++++++XXXXXXXX",
"XXXXXXXXXXXXXXXX++++++               OOOOOOOOOO        ++++++++++++XXXXXXXX",
"XXXXXXXXXXXXXXXX++++++               OOOOOOOOOO        ++++++++++++XXXXXXXX",
"XXXXXXXXXXXXXXXX++++++               OOOOOOOOOO        ++++++++++++XXXXXXXX",
"XXXXXXXXXXXXXXXX++++++               OOOOOOOOOO        ++++++++++++XXXXXXXX",
"XXXXXXXXXXXXXXXX++++++               OOOOOOOOOO        ++++++++++++XXXXXXXX",
"XXXXXXXXXXXXXXXX++++++               OOOOOOOOOO        ++++++++++++XXXXXXXX",
"XXXXXXXXXXXXXXXX++++++               OOOOOOOOOO        ++++++++++++XXXXXXXX",
"XXXXXXXXXXXXXXXX++++++               OOOOOOOOOO        ++++++++++++XXXXXXXX",
"XXXXXXXXXXXXXXXX++++++               OOOOOOOOOO        ++++++++++++XXXXXXXX",
"XXXXXXXXXXXXXXXX++++++               OOOOOOOOOO        ++++++++++++XXXXXXXX",
"XXXXXXXXXXXXXXXX++++++               OOOOOOOOOO        ++++++++++++XXXXXXXX",
"XXXXXXXXXXXXXXXX++++++               OOOOOOOOOO        ++++++++++++XXXXXXXX",
"XXXXXXXXXXXXXXXX++++++               OOOOOOOOOO        ++++++++++++XXXXXXXX",
"XXXXXXXXXXXXXXXX++++++               OOOOOOOOOO        ++++++++++++XXXXXXXX",
"XXXXXXXXXXXXXXXX++++++               OOOOOOOOOO        ++++++++++++XXXXXXXX",
"XXXXXXXXXXXXXXXX++++++               OOOOOOOOOO        ++++++++++++XXXXXXXX",
"XXXXXXXXXXXXXXXX++++++               OOOOOOOOOO        ++++++++++++XXXXXXXX",
"XXXXXXXXXXXXXXXX++++++               OOOOOOOOOO        ++++++++++++XXXXXXXX",
"XXXXXXXXXXXXXXXX++++++               OOOOOOOOOO        ++++++++++++XXXXXXXX",
"XXXXXXXXXXXXXXXX++++++               OOOOOOOOOO        ++++++++++++XXXXXXXX",
"XXXXXXXXXXXXXXXX++++++               OOOOOOOOOO        ++++++++++++XXXXXXXX",
"XXXXXXXXXXXXXXXX++++++               OOOOOOOOOO        ++++++++++++XXXXXXXX",
"XXXXXXXXXXXXXXXX++++++               OOOOOOOOOO        ++++++++++++XXXXXXXX",
"XXXXXXXXXXXXXXXX++++++               OOOOOOOOOO        ++++++++++++XXXXXXXX",
"XXXXXXXXXXXXXXXX++++++               OOOOOOOOOO        ++++++++++++XXXXXXXX",
"XXXXXXXXXXXXXXXX++++++               OOOOOOOOOO        ++++++++++++XXXXXXXX",
"XXXXXXXXXXXXXXXX++++++               OOOOOOOOOO        ++++++++++++XXXXXXXX",
"XXXXXXXXXXXXXXXX++++++               OOOOOOOOOO        ++++++++++++XXXXXXXX",
"XXXXXXXXXXXXXXXX++++++               OOOOOOOOOO        ++++++++++++XXXXXXXX",
"XXXXXXXXXXXXXXXX++++++               OOOOOOOOOO        ++++++++++++XXXXXXXX",
"XXXXXXXXXXXXXXXX++++++               OOOOOOOOOO        ++++++++++++XXXXXXXX",
"XXXXXXXXXXXXXXXX++++++               OOOOOOOOOO        ++++++++++++XXXXXXXX",
"XXXXXXXXXXXXXXXX++++++               OOOOOOOOOO        ++++++++++++XXXXXXXX",
"XXXXXXXXXXXXXXXX++++++               OOOOOOOOOO        ++++++++++++XXXXXXXX",
"XXXXXXXXXXXXXXXX++++++               OOOOOOOOOO        ++++++++++++XXXXXXXX",
"XXXXXXXXXXXXXXXX++++++               OOOOOOOOOO        ++++++++++++XXXXXXXX",
"XXXXXXXXXXXXXXXX++++++               OOOOOOOOOO        ++++++++++++XXXXXXXX",
"XXXXXXXXXXXXXXXX++++++               OOOOOOOOOO        ++++++++++++XXXXXXXX",
"XXXXXXXXXXXXXXXX++++++               OOOOOOOOOO        ++++++++++++XXXXXXXX",
"XXXXXXXX.XXXXXXX++++++               OOOOOOOOOO        ++++++++++++XXXXXXXX",
"XXXXXXXXXXXXXXXX++++++               OOOOOOOOOO        ++++++++++++XXXXXXXX",
"XXXXXXXXoXXXXXXX++++++               OOOOOOOOOO        ++++++++++++XXXXXXXX",
"XXXXXXXXoXXXXXXX++++++               OOOOOOOOOO        ++++++++++++XXXXXXXX"
};
