/* XPM */
static char *result[] = {
/* columns rows colors chars-per-pixel */
"75 75 237 2 ",
"   c #9E7416",
".  c #967C0E",
"X  c #AC6E02",
"o  c #A66F05",
"O  c #B26E01",
"+  c #B56D09",
"@  c #A77300",
"#  c #AC7201",
"$  c #A5750C",
"%  c #AA730B",
"&  c #A67A0C",
"*  c #AD7A0C",
"=  c #AA7903",
"-  c #B37301",
";  c #BC7400",
":  c #B57B00",
">  c #BC7C01",
",  c #B37309",
"<  c #B87C0A",
"1  c #A67712",
"2  c #AC7314",
"3  c #A47B13",
"4  c #AA7B13",
"5  c #AC7B1B",
"6  c #A27A1C",
"7  c #BC7810",
"8  c #B47911",
"9  c #A77A25",
"0  c #C96B00",
"q  c #CC7401",
"w  c #C27B01",
"e  c #C27302",
"r  c #99841B",
"t  c #BC8101",
"y  c #BC890B",
"u  c #B88405",
"i  c #A5821C",
"p  c #B88A1A",
"a  c #B89712",
"s  c #9C8429",
"d  c #9D8536",
"f  c #8E963F",
"g  c #A68524",
"h  c #A38929",
"j  c #A98729",
"k  c #A58734",
"l  c #B48734",
"z  c #A4943E",
"x  c #BD933B",
"c  c #B68A21",
"v  c #C48403",
"b  c #C38A03",
"n  c #C3850B",
"m  c #C9840A",
"M  c #C68A0A",
"N  c #CC8B0B",
"B  c #CB8805",
"V  c #DA8909",
"C  c #D18C0B",
"Z  c #C69403",
"A  c #CB9303",
"S  c #C3910D",
"D  c #CB930B",
"F  c #CB9C09",
"G  c #C69A05",
"H  c #D4950D",
"J  c #DA930A",
"K  c #D39B0A",
"L  c #D89707",
"P  c #C88C14",
"I  c #D28E1F",
"U  c #CC9914",
"Y  c #D39313",
"T  c #DA9613",
"R  c #DC9D13",
"E  c #DB991A",
"W  c #D5971A",
"Q  c #E39108",
"!  c #E88F08",
"~  c #D2A40A",
"^  c #D9A20C",
"/  c #D4AC0C",
"(  c #DDAB0F",
")  c #D3A506",
"_  c #D8B40A",
"`  c #D5A612",
"'  c #DBA713",
"]  c #D3AC10",
"[  c #D5A91A",
"{  c #DFA914",
"}  c #DEB513",
"|  c #DCBA12",
" . c #DEBA1A",
".. c #DAB11A",
"X. c #C8AE10",
"o. c #E3A80D",
"O. c #E4B60C",
"+. c #E6B90C",
"@. c #E9BA0C",
"#. c #E2A412",
"$. c #E4AB13",
"%. c #EAAD13",
"&. c #E1B513",
"*. c #E6B51C",
"=. c #E3BC1C",
"-. c #E9B817",
";. c #F2BD1D",
":. c #C2933A",
">. c #D39825",
",. c #DFAE26",
"<. c #D6BE26",
"1. c #E8BC25",
"2. c #F4BC27",
"3. c #D6D913",
"4. c #DCC20B",
"5. c #ECC20B",
"6. c #EBCC0D",
"7. c #E4C20F",
"8. c #EAD30F",
"9. c #F4DB0C",
"0. c #F8DB0D",
"q. c #E5C114",
"w. c #ECCC13",
"e. c #EBC41D",
"r. c #EECD1D",
"t. c #E9C717",
"y. c #F3CD1E",
"u. c #F4C919",
"i. c #EDD31A",
"p. c #EBD615",
"a. c #F3D315",
"s. c #F4DB14",
"d. c #FADB14",
"f. c #F4D21C",
"g. c #FAD51C",
"h. c #F5DA1C",
"j. c #FADC1D",
"k. c #F0C90E",
"l. c #FAE406",
"z. c #FCEC07",
"x. c #F4E30D",
"c. c #FAE30B",
"v. c #FDED0C",
"b. c #F5E80A",
"n. c #F7F700",
"m. c #FCF504",
"M. c #FDF40B",
"N. c #FEF90A",
"B. c #E6E618",
"V. c #F5E413",
"C. c #FCE413",
"Z. c #F5ED14",
"A. c #FEEC14",
"S. c #FDE31C",
"D. c #FEEB1A",
"F. c #F5E619",
"G. c #F9F515",
"H. c #E9C425",
"J. c #EECD23",
"K. c #E8C328",
"L. c #F4CD23",
"P. c #FACC24",
"I. c #F6CA29",
"U. c #F4D323",
"Y. c #FAD424",
"T. c #F4DA22",
"R. c #F4D12B",
"E. c #FFDF22",
"W. c #F4CB33",
"Q. c #F6D132",
"!. c #ECD520",
"~. c #FBE822",
"^. c #FBF225",
"/. c #FBEE33",
"(. c #F7EF3B",
"). c #FDF53C",
"_. c #FAF932",
"`. c #9D9546",
"'. c #999956",
"]. c #A08940",
"[. c #A7944A",
"{. c #B59441",
"}. c #BC984A",
"|. c #A99554",
" X c #B59B55",
".X c #BB9E57",
"XX c #B8A25B",
"oX c #B28C61",
"OX c #9DA863",
"+X c #9CA973",
"@X c #A6A569",
"#X c #B6A86C",
"$X c #B7A368",
"%X c #ABAE7A",
"&X c #B5B47B",
"*X c #BAB379",
"=X c #B2AE79",
"-X c #C49047",
";X c #D0A759",
":X c #A3C677",
">X c #F9F748",
",X c #FEFE5D",
"<X c #FCFA69",
"1X c #FDF875",
"2X c #96B794",
"3X c #BABA87",
"4X c #A6B98A",
"5X c #C4AF82",
"6X c #CFBE8F",
"7X c #D0BF95",
"8X c #B9C797",
"9X c #B0C190",
"0X c #8DD1BD",
"qX c #9ACBAD",
"wX c #ADC3B0",
"eX c #B5CBAF",
"rX c #D3C399",
"tX c #FEFB9E",
"yX c #FEF981",
"uX c #D2C9A9",
"iX c #E4CFB0",
"pX c #E3D3B4",
"aX c #FDF9AA",
"sX c #FFF8BC",
"dX c #B0CFC0",
"fX c #BBE0CD",
"gX c #AEE0D4",
"hX c #DADBC8",
"jX c #E5DDC0",
"kX c #D9E4D3",
"lX c #FEFBC0",
"zX c #FCFCD5",
"xX c #EDE8DB",
"cX c #EFFFFF",
"vX c #E6FEFF",
"bX c #F3FEFF",
"nX c #99D9EA",
/* pixels */
"nXnXnXnXnXnXnXnXnXnXnXnXnXnXnXnXnXnXnXnXnXnXnXnXnXnXnXnXnXnXcXnXnXnXnXnXbXnXnXnXnXnXnXnXnXnXnXnXnXnXnXnXnXnXnXnXnXnXnXnXnXnXnXnXnXnXnXnXnXnXnXnXnXnXnX",
"nXnXnXnXnXnXnXnXnXnXnXnXnXnXnXnXnXnXnXnXnXnXnXnXnXnXnXnXnXnXnXnXnXnXnXnXnXnXnXnXnXnXnXnXnXnXnXnXnXnXnXnXnXnXnXnXnXnXnXnXnXnXnXnXnXnXnXnXnXnXnXnXnXnXnX",
"nXnXnXnXnXnXnXnXnXnXnXnXnXnXnXnXnXnXnXnXnXnXnXnXnXnXnXnXnXnXnXnXnXnXnXuXpXiXhXnXnXnXnXnXnXnXnXnXnXnXnXnXnXnXnXnXnXnXnXnXnXnXnXnXnXnXnXnXnXnXnXnXnXnXnX",
"nXnXnXnXnXnXnXnXnXnXnXnXnXnXnXnXnXnXnXnXnXnXnXnXnXnXnXnXnXnXnXnXcXeXd O # O o rXnXnXnXnXnXnXnXnXnXnXnXnXnXnXnXnXnXnXnXnXnXnXnXnXnXnXnXnXnXnXnXnXnXnXnX",
"nXnXnXnXnXnXnXnXnXnXnXnXnXnXnXnXnXnXnXnXnXnXnXnXnXnXnXnXnXnXnXvX0Xr - / B.3.b @ jXnXnXnXnXnXnXnXnXnXnXnXnXnXnXnXnXnXnXnXnXnXnXnXnXnXnXnXnXnXnXnXnXnXnX",
"nXnXnXnXnXnXnXnXnXnXnXnXnXnXnXnXnXnXnXnXnXnXnXnXnXnXnXnXnXnXnXgXd ;  .G.M.M.F.G   xXnXnXnXnXnXnXnXnXnXnXnXnXnXnXnXnXnXnXnXnXnXnXnXnXnXnXnXnXnXnXnXnXnX",
"nXnXnXnXnXnXnXnXnXnXnXnXnXnXnXnXnXnXnXnXnXnXnXnXnXnXnXnXnXnXbX+X, _ _.<XM.m.M.F.u -XnXnXnXnXnXnXnXnXnXnXnXnXnXnXnXnXnXnXnXnXnXnXnXnXnXnXnXnXnXnXnXnXnX",
"nXnXnXnXnXnXnXnXnXnXnXnXnXnXnXnXnXnXnXnXnXnXnXnXnXnXnXnXnXnXkXr A ~.aXsXG.n.A.N.8.X 5XnXnXnXnXnXnXnXnXnXnXnXnXnXnXnXnXnXnXnXnXnXnXnXnXnXnXnXnXnXnXnXnX",
"nXnXnXnXnXnXnXnXnXnXnXnXnXnXnXnXnXnXnXnXnXnXnXnXnXnXnXnXnXnX@X- 6.<XnXaXG.n.M.m.N.~ 2 kXnXnXnXnXnXnXnXnXnXnXnXnXnXnXnXnXnXnXnXnXnXnXnXnXnXnXnXnXnXnXnX",
"nXnXnXnXnXnXnXnXnXnXnXnXnXnXnXnXnXnXnXnXnXnXnXnXnXnXnXnXnXnX9 N /.aXzX>Xn.M.m.m.m.p.e @XnXnXnXnXnXnXnXnXnXnXnXnXnXnXnXnXnXnXnXnXnXnXnXnXnXnXnXnXnXnXnX",
"nXnXnXnXnXnXnXnXnXnXnXnXnXnXnXnXnXnXnXnXnXnXnXnXnXnXnXnXnX3X@ q.1XzX1Xn.N.A.A.M.M.Z.D 9 nXnXnXnXnXnXnXnXnXnXnXnXnXnXnXnXnXnXnXnXnXnXnXnXnXnXnXnXnXnXnX",
"nXnXnXnXnXnXnXnXnXnXnXnXnXnXnXnXnXnXnXnXnXnXnXnXnXnXnXnXbXoXu B.tXlX^.M.x._ / S.n.M.| $ 2XnXnXnXnXnXnXnXnXnXnXnXnXnXnXnXnXnXnXnXnXnXnXnXnXnXnXnXnXnXnX",
"nXnXnXnXnXnXnXnXnXnXnXnXnXnXnXnXnXnXnXnXnXnXnXnXnXnXnXnXfX1 F _.sX1Xm.Z.a < D } v.M.B.w `.nXnXnXnXnXnXnXnXnXnXnXnXnXnXnXnXnXnXnXnXnXnXnXnXnXnXnXnXnXnX",
"nXnXnXnXnXnXnXnXnXnXnXnXnXnXnXnXnXnXnXnXnXnXnXnXnXnXnXnX2X, q.,XaX(.N._ * < m V a.M.G.F 6 nXnXnXnXnXnXnXnXnXnXnXnXnXnXnXnXnXnXnXnXnXnXnXnXnXnXnXnXnXnX",
"nXnXnXnXnXnXnXnXnXnXnXnXnXnXnXnXnXnXnXnXnXnXnXnXnXnXnXnX'.; ~.1X<XA.C.y k x > V &.m.M.X.X uXbXnXnXnXnXnXnXnXnXnXnXnXnXnXnXnXnXnXnXnXnXnXnXnXnXnXnXnXnX",
"nXnXnXnXnXnXnXnXnXnXnXnXnXnXnXnXnXnXnXnXnXnXnXnXnXnXnXnXj b /.yX).m.t.= %X2X, P ~ b.v.3.; @XnXnXnXnXnXnXnXnXnXnXnXnXnXnXnXnXnXnXnXnXnXnXnXnXnXnXnXnXnX",
"nXnXnXnXnXnXnXnXnXnXnXnXnXnXnXnXnXnXnXnXnXnXnXnXnXnXnXqX% ) ).<X^.M.] . nXnXg y H 8.M.B.t [.nXnXnXnXnXnXnXnXnXnXnXnXnXnXnXnXnXnXnXnXnXnXnXnXnXnXnXnXnX",
"nXnXnXnXnXnXnXnXnXnXnXnXnXnXnXnXnXnXnXnXnXnXnXnXnXnXnX4X= 7.).>XZ.A.Z d nXnXf q I 5.m.D.G 9 nXnXnXnXnXnXnXnXnXnXnXnXnXnXnXnXnXnXnXnXnXnXnXnXnXnXnXnXnX",
"nXnXnXnXnXnXnXnXnXnXnXnXnXnXnXnXnXnXnXnXnXnXnXnXnXnXnX|.: 8.).).M.h.> [.nXnX&X; P o.m.M./ $ nXnXnXnXnXnXnXnXnXnXnXnXnXnXnXnXnXnXnXnXnXnXnXnXnXnXnXnXnX",
"nXnXnXnXnXnXnXnXnXnXnXnXnXnXnXnXnXnXnXnXnXnXnXnXnXnXnX].t x._./.n.i.X 6XnXnXuX@ C ^ c.N.| X wXnXnXnXnXnXnXnXnXnXnXnXnXnXnXnXnXnXnXnXnXnXnXnXnXnXnXnXnX",
"nXnXnXnXnXnXnXnXnXnXnXnXnXnXnXnXnXnXnXnXnXnXnXnXnXnXnXk G A.^.^.m.+.= xXnXnXpX3 m K 9.M.w.# 2XnXnXnXnXnXnXnXnXnXnXnXnXnXnXnXnXnXnXnXnXnXnXnXnXnXnXnXnX",
"nXnXnXnXnXnXnXnXnXnXnXnXnXnXnXnXnXnXnXnXnXnXnXnXnXnXnX  ~ A.D.Z.M./ * nXnXnXnX{.w J 6.M.s.t OXnXnXnXnXnXnXnXnXnXnXnXnXnXnXnXnXnXnXnXnXnXnXnXnXnXnXnXnX",
"nXnXnXnXnXnXnXnXnXnXnXnXnXnXnXnXnXnXnXnXnXnXnXnXnXnXeX2 _ v.D.Z.v.~ 5 nXnXnXnX}.w H q.v.x.t `.nXnXnXnXnXnXnXnXnXnXnXnXnXnXnXnXnXnXnXnXnXnXnXnXnXnXnXnX",
"nXnXnXnXnXnXnXnXnXnXnXnXnXnXnXnXnXnXnXnXnXnXnXnXnXnXwX# 4.A.D.b.v.S 5 nXnXnXnX.X> Y &.z.v.Z k nXnXnXnXnXnXnXnXnXnXnXnXnXnXnXnXnXnXnXnXnXnXnXnXnXnXnXnX",
"nXnXnXnXnXnXnXnXnXnXnXnXnXnXnXnXnXnXnXnXnXnXnXnXnXnX*X, 6.v.V.z.v.v {.nXnXnXnX*X- Y o.z.A.F 9 nXnXnXnXnXnXnXnXnXnXnXnXnXnXnXnXnXnXnXnXnXnXnXnXnXnXnXnX",
"nXnXnXnXnXnXnXnXnXnXnXnXnXnXnXnXnXnXnXnXnXnXnXnXnXnX.X, a.Z.V.z.x.; .XnXnXnXnX3X- Y ( l.A./ $ nXnXnXnXnXnXnXnXnXnXnXnXnXnXnXnXnXnXnXnXnXnXnXnXnXnXnXnX",
"nXnXnXnXnXnXnXnXnXnXnXnXnXnXnXnXnXnXnXnXnXnXnXnXnXnX`.> 9.v.c.z.p.; nXnXnXnXnXnX# N ^ 0.A.| X nXnXnXnXnXnXnXnXnXnXnXnXnXnXnXnXnXnXnXnXnXnXnXnXnXnXnXnX",
"nXnXnXnXnXnXnXnXnXnXnXnXnXnXnXnXnXnXnXnXnXnXnXnXnXnXk v V.A.c.v.r.# nXnXnXnXnXnX- N R 0.D.-.O nXnXnXnXnXnXnXnXnXnXnXnXnXnXnXnXnXnXnXnXnXnXnXnXnXnXnXnX",
"nXnXnXnXnXnXnXnXnXnXnXnXnXnXnXnXnXnXnXnXnXnXnXnXnXnXj b V.C.l.Z.H.O nXnXnXnXnXnX% N R a.D.w.O nXnXnXnXnXnXnXnXnXnXnXnXnXnXnXnXnXnXnXnXnXnXnXnXnXnXnXnX",
"nXnXnXnXnXnXnXnXnXnXnXnXnXnXnXnXnXnXnXnXnXnXnXnXnXnXg Z C.d.l.Z.=.O nXnXnXnXnXnX& M E 6.D.w.- 7XnXnXnXnXnXnXnXnXnXnXnXnXnXnXnXnXnXnXnXnXnXnXnXnXnXnXnX",
"nXnXnXnXnXnXnXnXnXnXnXnXnXnXnXnXnXnXnXnXnXnXnXnXnXnXi G S.C.b.A.=.O nXnXnXnXnXnX& M T 5.C.a.: #XnXnXnXnXnXnXnXnXnXnXnXnXnXnXnXnXnXnXnXnXnXnXnXnXnXnXnX",
"nXnXnXnXnXnXnXnXnXnXnXnXnXnXnXnXnXnXnXnXnXnXnXnXnXnX3 F S.x.x.D.| X nXnXnXnXnXnX& m T @.D.s.: XXnXnXnXnXnXnXnXnXnXnXnXnXnXnXnXnXnXnXnXnXnXnXnXnXnXnXnX",
"nXnXnXnXnXnXnXnXnXnXnXnXnXnXnXnXnXnXnXnXnXnXnXnXnXnX3 F S.x.x.S._ X nXnXnXnXnXnX4 v T +.A.h.t XXnXnXnXnXnXnXnXnXnXnXnXnXnXnXnXnXnXnXnXnXnXnXnXnXnXnXnX",
"nXnXnXnXnXnXnXnXnXnXnXnXnXnXnXnXnXnXnXnXnXnXnXnXnXnX3 ~ E.c.V.S./ , nXnXnXnXnXnXg v E +.C.h.t  XnXnXnXnXnXnXnXnXnXnXnXnXnXnXnXnXnXnXnXnXnXnXnXnXnXnXnX",
"nXnXnXnXnXnXnXnXnXnXnXnXnXnXnXnXnXnXnXnXnXnXnXnXnXnX3 K j.c.x.E.] 2 nXnXnXnXnXnXg m E +.S.h.t  XnXnXnXnXnXnXnXnXnXnXnXnXnXnXnXnXnXnXnXnXnXnXnXnXnXnXnX",
"nXnXnXnXnXnXnXnXnXnXnXnXnXnXnXnXnXnXnXnXnXnXnXnXnXnX3 K j.s.s.E.` 4 nXnXnXnXnXnXh w E | d.h.t  XnXnXnXnXnXnXnXnXnXnXnXnXnXnXnXnXnXnXnXnXnXnXnXnXnXnXnX",
"nXnXnXnXnXnXnXnXnXnXnXnXnXnXnXnXnXnXnXnXnXnXnXnXnXnX& D j.0.V.S./ 1 nXnXnXnXnXnXh v R +.S.h.t  XnXnXnXnXnXnXnXnXnXnXnXnXnXnXnXnXnXnXnXnXnXnXnXnXnXnXnX",
"nXnXnXnXnXnXnXnXnXnXnXnXnXnXnXnXnXnXnXnXnXnXnXnXnXnX3 D T.0.s.S.` 1 nXnXnXnXnXnXh v Q +.h.d.t |.nXnXnXnXnXnXnXnXnXnXnXnXnXnXnXnXnXnXnXnXnXnXnXnXnXnXnX",
"nXnXnXnXnXnXnXnXnXnXnXnXnXnXnXnXnXnXnXnXnXnXnXnXnXnX3 D U.0.s.S.` $ nXnXnXnXnXnXg v #.+.S.h.t  XnXnXnXnXnXnXnXnXnXnXnXnXnXnXnXnXnXnXnXnXnXnXnXnXnXnXnX",
"nXnXnXnXnXnXnXnXnXnXnXnXnXnXnXnXnXnXnXnXnXnXnXnXnXnX3 M U.d.p.j.' % nXnXnXnXnXnXg v o.+.h.f.t  XnXnXnXnXnXnXnXnXnXnXnXnXnXnXnXnXnXnXnXnXnXnXnXnXnXnXnX",
"nXnXnXnXnXnXnXnXnXnXnXnXnXnXnXnXnXnXnXnXnXnXnXnXnXnX5 n L.d.B.E.' % nXnXnXnXnXnXi b %.@.h.f.t XXnXnXnXnXnXnXnXnXnXnXnXnXnXnXnXnXnXnXnXnXnXnXnXnXnXnXnX",
"nXnXnXnXnXnXnXnXnXnXnXnXnXnXnXnXnXnXnXnXnXnXnXnXnXnXx t e.g.i.h.{ X nXnXnXnXnXnXi B %.5.h.r.: XXnXnXnXnXnXnXnXnXnXnXnXnXnXnXnXnXnXnXnXnXnXnXnXnXnXnXnX",
"nXnXnXnXnXnXnXnXnXnXnXnXnXnXnXnXnXnXnXnXnXnXnXnXnXnX:.> ;.g.i.h.$.O nXnXnXnXnXnX3 B O.k.d.J.: #XnXnXnXnXnXnXnXnXnXnXnXnXnXnXnXnXnXnXnXnXnXnXnXnXnXnXnX",
"nXnXnXnXnXnXnXnXnXnXnXnXnXnXnXnXnXnXnXnXnXnXnXnXnXnX:.> -.U.a.T.$.7 nXnXnXnXnXnX3 C @.e.a.e.- &XnXnXnXnXnXnXnXnXnXnXnXnXnXnXnXnXnXnXnXnXnXnXnXnXnXnXnX",
"nXnXnXnXnXnXnXnXnXnXnXnXnXnXnXnXnXnXnXnXnXnXnXnXnXnXx : %.h.g.T.} 8 nXnXnXnXnXnX3 K q.y.g.=.- &XnXnXnXnXnXnXnXnXnXnXnXnXnXnXnXnXnXnXnXnXnXnXnXnXnXnXnX",
"nXnXnXnXnXnXnXnXnXnXnXnXnXnXnXnXnXnXnXnXnXnXnXnXnXnXx : #.U.f.Y. .u nXnXnXnXnXnX* K 5.L.g...# &XnXnXnXnXnXnXnXnXnXnXnXnXnXnXnXnXnXnXnXnXnXnXnXnXnXnXnX",
"nXnXnXnXnXnXnXnXnXnXnXnXnXnXnXnXnXnXnXnXnXnXnXnXnXnX{.: R U.f.Y.=.< nXnXnXnXnXnX# / k.y.j.[ @ 3XnXnXnXnXnXnXnXnXnXnXnXnXnXnXnXnXnXnXnXnXnXnXnXnXnXnXnX",
"nXnXnXnXnXnXnXnXnXnXnXnXnXnXnXnXnXnXnXnXnXnXnXnXnXcX{.- J !.f.P.e.y nXnXnXnXnXnXO o.u.f.g.U @ 8XnXnXnXnXnXnXnXnXnXnXnXnXnXnXnXnXnXnXnXnXnXnXnXnXnXnXnX",
"nXnXnXnXnXnXnXnXnXnXnXnXnXnXnXnXnXnXnXnXnXnXnXnXnXbX&X- D u.f.f.H.y nXnXnXnXnXnX# O.a.y.f.D 3 nXnXnXnXnXnXnXnXnXnXnXnXnXnXnXnXnXnXnXnXnXnXnXnXnXnXnXnX",
"nXnXnXnXnXnXnXnXnXnXnXnXnXnXnXnXnXnXnXnXnXnXnXnXnXnXnX: S ;.g.i.L.a nXnXnXnXnXnX: 5.a.f.f.M h nXnXnXnXnXnXnXnXnXnXnXnXnXnXnXnXnXnXnXnXnXnXnXnXnXnXnXnX",
"nXnXnXnXnXnXnXnXnXnXnXnXnXnXnXnXnXnXnXnXnXnXnXnXnXnXnX* y %.U.p.L.M nXnXnXnXnXnX: 6.g.f.y.> [.nXnXnXnXnXnXnXnXnXnXnXnXnXnXnXnXnXnXnXnXnXnXnXnXnXnXnXnX",
"nXnXnXnXnXnXnXnXnXnXnXnXnXnXnXnXnXnXnXnXnXnXnXnXnXnXnX& n #.P.r.Y.B rXnXnXnXnXk b 0.a.U.e.# #XnXnXnXnXnXnXnXnXnXnXnXnXnXnXnXnXnXnXnXnXnXnXnXnXnXnXnXnX",
"nXnXnXnXnXnXnXnXnXnXnXnXnXnXnXnXnXnXnXnXnXnXnXnXnXnXnXj v E I.i.Y.L ;XnXnXnXnX  D c.f.R.*.X rXnXnXnXnXnXnXnXnXnXnXnXnXnXnXnXnXnXnXnXnXnXnXnXnXnXnXnXnX",
"nXnXnXnXnXnXnXnXnXnXnXnXnXnXnXnXnXnXnXnXnXnXnXnXnXnXnXx ; W ;.!.U.{ p nXnXnXnX  R l.p.Q.( @ nXnXnXnXnXnXnXnXnXnXnXnXnXnXnXnXnXnXnXnXnXnXnXnXnXnXnXnXnX",
"nXnXnXnXnXnXnXnXnXnXnXnXnXnXnXnXnXnXnXnXnXnXnXnXnXnXnX$X; C -.U.!.1.- nXnXnX3X@ =.c.r.R.Y & nXnXnXnXnXnXnXnXnXnXnXnXnXnXnXnXnXnXnXnXnXnXnXnXnXnXnXnXnX",
"nXnXnXnXnXnXnXnXnXnXnXnXnXnXnXnXnXnXnXnXnXnXnXnXnXnXnX3X- C $.P.y.I.w ].nXnX@X- 8.C.L.r.m i nXnXnXnXnXnXnXnXnXnXnXnXnXnXnXnXnXnXnXnXnXnXnXnXnXnXnXnXnX",
"nXnXnXnXnXnXnXnXnXnXnXnXnXnXnXnXnXnXnXnXnXnXnXnXnXnXnXnX$ B R L.r.W.N j nXnX|.> b.g.y.K.> z nXnXnXnXnXnXnXnXnXnXnXnXnXnXnXnXnXnXnXnXnXnXnXnXnXnXnXnXnX",
"nXnXnXnXnXnXnXnXnXnXnXnXnXnXnXnXnXnXnXnXnXnXnXnXnXnXnXnXs w H -.L.R.` - nXnX5 I m.L.f.,.- OXnXnXnXnXnXnXnXnXnXnXnXnXnXnXnXnXnXnXnXnXnXnXnXnXnXnXnXnXnX",
"nXnXnXnXnXnXnXnXnXnXnXnXnXnXnXnXnXnXnXnXnXnXnXnXnXnXnXnX'.w Y $.L.I.=.- %X:XX } v.I.U.W @ 8XnXnXnXnXnXnXnXnXnXnXnXnXnXnXnXnXnXnXnXnXnXnXnXnXnXnXnXnXnX",
"nXnXnXnXnXnXnXnXnXnXnXnXnXnXnXnXnXnXnXnXnXnXnXnXnXnXnXnX&X- P ^ L.L.J.u 9 c : 9.F.y.R.n * nXnXnXnXnXnXnXnXnXnXnXnXnXnXnXnXnXnXnXnXnXnXnXnXnXnXnXnXnXnX",
"nXnXnXnXnXnXnXnXnXnXnXnXnXnXnXnXnXnXnXnXnXnXnXnXnXnXnXnXnX1 m J *.I.U.[ 7 , ~ A.f.P.<., }.nXnXnXnXnXnXnXnXnXnXnXnXnXnXnXnXnXnXnXnXnXnXnXnXnXnXnXnXnXnX",
"nXnXnXnXnXnXnXnXnXnXnXnXnXnXnXnXnXnXnXnXnXnXnXnXnXnXnXnXnXnX> H { I.i.I.U D d.0.u.R.X.X nXnXnXnXnXnXnXnXnXnXnXnXnXnXnXnXnXnXnXnXnXnXnXnXnXnXnXnXnXnXnX",
"nXnXnXnXnXnXnXnXnXnXnXnXnXnXnXnXnXnXnXnXnXnXnXnXnXnXnXnXnXnX@ D ! K.U.P.W.Q.d.8.y.H.m 6 nXnXnXnXnXnXnXnXnXnXnXnXnXnXnXnXnXnXnXnXnXnXnXnXnXnXnXnXnXnXnX",
"nXnXnXnXnXnXnXnXnXnXnXnXnXnXnXnXnXnXnXnXnXnXnXnXnXnXnXnXnXnXnXt Q ` I.y.J.J.8.y.L.[ 0 @XnXnXnXnXnXnXnXnXnXnXnXnXnXnXnXnXnXnXnXnXnXnXnXnXnXnXnXnXnXnXnX",
"nXnXnXnXnXnXnXnXnXnXnXnXnXnXnXnXnXnXnXnXnXnXnXnXnXnXnXnXnXnXnX# D T *.P.r.r.r.I.K.M 2 nXnXnXnXnXnXnXnXnXnXnXnXnXnXnXnXnXnXnXnXnXnXnXnXnXnXnXnXnXnXnXnX",
"nXnXnXnXnXnXnXnXnXnXnXnXnXnXnXnXnXnXnXnXnXnXnXnXnXnXnXnXnXnXnXnXn U J *.L.U.Q.2.Y ; '.nXnXnXnXnXnXnXnXnXnXnXnXnXnXnXnXnXnXnXnXnXnXnXnXnXnXnXnXnXnXnXnX",
"nXnXnXnXnXnXnXnXnXnXnXnXnXnXnXnXnXnXnXnXnXnXnXnXnXnXnXnXnXnXnXnXe P R L o.*.$.R n , nXnXnXnXnXnXnXnXnXnXnXnXnXnXnXnXnXnXnXnXnXnXnXnXnXnXnXnXnXnXnXnXnX",
"nXnXnXnXnXnXnXnXnXnXnXnXnXnXnXnXnXnXnXnXnXnXnXnXnXnXnXnXnXnXnXnXk q P >.W T Y q , @XnXnXnXnXnXnXnXnXnXnXnXnXnXnXnXnXnXnXnXnXnXnXnXnXnXnXnXnXnXnXnXnXnX",
"nXnXnXnXnXnXnXnXnXnXnXnXnXnXnXnXnXnXnXnXnXnXnXnXnXnXnXnXnXnXnXnXnX1 q c Y J y , [.nXnXnXnXnXnXnXnXnXnXnXnXnXnXnXnXnXnXnXnXnXnXnXnXnXnXnXnXnXnXnXnXnXnX",
"nXnXnXnXnXnXnXnXnXnXnXnXnXnXnXnXnXnXnXnXnXnXnXnXnXnXnXnXnXnXnXnXnXnX9 0 w ; @ '.nXnXnXnXnXnXnXnXnXnXnXnXnXnXnXnXnXnXnXnXnXnXnXnXnXnXnXnXnXnXnXnXnXnXnX",
"nXnXnXnXnXnXnXnXnXnXnXnXnXnXnXnXnXnXnXnXnXnXnXnXnXnXnXnXnXnXnXnXnXnXnX%X'.@X9XnXnXnXnXnXnXnXnXnXnXnXnXnXnXnXnXnXnXnXnXnXnXnXnXnXnXnXnXnXnXnXnXnXnXnXnX",
"nXnXnXnXnXnXnXnXnXnXnXnXnXnXnXnXnXnXnXnXnXnXnXnXnXnXnXnXnXnXnXnXnXnXnXcXbXcXbXnXnXnXnXnXnXnXnXnXnXnXnXnXnXnXnXnXnXnXnXnXnXnXnXnXnXnXnXnXnXnXnXnXnXnXnX",
"nXnXnXnXnXnXnXnXnXnXnXnXnXnXnXnXnXnXnXnXnXnXnXnXnXnXnXnXnXnXnXnXnXnXnXnXnXnXnXnXnXnXnXnXnXnXnXnXnXnXnXnXnXnXnXnXnXnXnXnXnXnXnXnXnXnXnXnXnXnXnXnXnXnXnX",
"nXnXnXnXnXnXnXnXnXnXnXnXnXnXnXnXnXnXnXnXnXnXnXnXnXnXnXnXnXnXnXnXnXnXnXnXnXnXnXnXnXnXnXnXnXnXnXnXnXnXnXnXnXnXnXnXnXnXnXnXnXnXnXnXnXnXnXnXnXnXnXnXnXnXnX",
"nXnXnXnXnXnXnXnXnXnXnXnXnXnXnXnXnXnXnXnXnXnXnXnXnXnXnXnXnXnXnXnXnXnXnXnXnXnXnXnXnXnXnXnXnXnXnXnXnXnXnXnXnXnXnXnXnXnXnXnXnXnXnXnXnXnXnXnXnXnXnXnXnXnXnX"
};
