/* XPM */
static char *result[] = {
/* columns rows colors chars-per-pixel */
"75 75 76 1 ",
"  c #4C0A0A",
". c #540D0B",
"X c #5A0E0B",
"o c #5D110B",
"O c #630E0C",
"+ c #6B0F0C",
"@ c #730F0E",
"# c #64130C",
"$ c #6C150C",
"% c #6D180C",
"& c #73150D",
"* c #7B140E",
"= c #76180C",
"- c #7A190C",
"; c #83140E",
": c #8B150F",
"> c #841A0D",
", c #8A1C0D",
"< c #93160F",
"1 c #98160F",
"2 c #931E0D",
"3 c #9C1B0E",
"4 c #8E1410",
"5 c #941410",
"6 c #9B1610",
"7 c #9E1810",
"8 c #A21C0F",
"9 c #AA1E0F",
"0 c #A31910",
"q c #AC1C10",
"w c #B31E10",
"e c #B81F10",
"r c #8A240E",
"t c #95230E",
"y c #9D250E",
"u c #9C2C0D",
"i c #A2250F",
"p c #AC230E",
"a c #AE2D0F",
"s c #B1240E",
"d c #B9230F",
"f c #B22E0E",
"g c #BC2E0F",
"h c #B3300E",
"j c #B8310F",
"k c #B62010",
"l c #BC2110",
"z c #C0270F",
"x c #C42D0F",
"c c #C5320F",
"v c #C7390F",
"b c #CC3E0F",
"n c #D1390F",
"m c #C42410",
"M c #CC2610",
"N c #C72A10",
"B c #CE2910",
"V c #D02710",
"C c #D42A10",
"Z c #D82F10",
"A c #C33710",
"S c #CD3710",
"D c #C63A10",
"F c #C93E10",
"G c #D63210",
"H c #D93310",
"J c #D23D10",
"K c #DD3C10",
"L c #CC420F",
"P c #D0440F",
"I c #CA4210",
"U c #DF4210",
"Y c #E14510",
"T c #E54D10",
"R c #E84F10",
"E c #E85010",
/* pixels */
"   #$#$$#$$#$$#$#$#$$$#$$$#$##%%#$$$#o  X$$$#$$#$$#$##%#%#%$#$$##$#$$##%##%",
"  .$%%%%%%%%%%%%%%%%%%%%%%%%%%%%%%%%#o  X%%%%%%$%%%%%%%%%%%%%%%%$$%%%%%%%%%",
".X$,rrrrrrrrrrrrrrrrrrrrrrrrrrrrrrr-&Xo#-rrrrrrrrrrrrrrrrrrrrrrrrrrrrrrrr-%",
"#-icLLLILLIIIIIIIIIIIIIIIFFADIIIIIDf>$%2fIIILLIIIILLIIIIIIIIIIIIvvILPLIIjy-",
"%2xUTTTTTTTTTTTTTTTTTTTTTTYUUETTTTYSt&=pGYTTTTTTTTTTUETTTTTTTTTTUUTTTTEYUa>",
"%2xYETRRTETETTTEETTEETTRETTTTEEETTRPt&-aKREEETEEETEETEETTTTETETTYTEETRRRYh,",
"%2xYTTTTTTETTETETEETTTRTTTETETEETYYJt&-sJTTTTTTTTTTTETTETTETTETETEEETTYYYhr",
"%2xYTTTTTTTETTETTETTTETTETTTUTTUTYTPt&-snYTTTEETETETTEETETTTETTEETYYTYTYYh>",
"%2xUYTTTETTETETTTTRTTTRTTTTYKKKYTTYJt&-snYYTRTTTTTTTTETRTTTTETTTYYKKUTTYUh,",
"$2xKYYYYTTTETTTERTTTTTTTYYKHZZZKTYYJt&=fGUYYYYTETRTTTTTTTTTETTUKKHCCHYTYUh,",
"%2xHKKKYUTTETTTTRTYTTYTTTKKZZCCZKYYJt&-sGKKKUYYTTETTTTTYTETYYTYKHZCCGKUUUh,",
"%2zZHHKKYUYTTTTTYYYYYKYYYYKHCCCCHKYJt=-pBZZKKYYYTTTTTTYYUYUKYYYUKZCCCCKUUh,",
"&<kBZGHKYYYYUYTYYYYKHZZKKKHZCCCCHKYJt=-pxCZHKKYYYYYYTYYYKKHZKKUHZCCZZCHUUhr",
"%,sBZGZHKKKHKUTEYYKKZCCZHZZZCCZZHYYPt&=8zCZZCKKKHKKYTTYUKHCCGHGZZCCCCGKYYhr",
"%,wMZZCZHHGZHUTTYKHZZCCCCCCCCCCCHYTJt=&3zCZCCZHKCZKTTTYHZZCCCCCCCCCZCHUYUf,",
"%,9MCZCCCCCCZHUKKHZZCCCCCCCCCCCCZHKSt==8zVCCCCCCCCHKKKHGZZCCCCCCCCCCCCHKKa,",
"$;9ezVVVVVCVCZZZCZCCCCCCCCCCVCCCCZHB2&&1qmMMVMVCVCCGCZZCCCCCCCCCCCCCCCCZZs,",
"$*10eVMMMVVVCCCCCCCCCCCCCCCCCCCCCCZz,&%:0wmMmMVCVCCCCCCCCCCCCCCCCCCCCCCCCw,",
"$&:8eMlmMMVMCCCCCCCCCCCCCCVCCCCCCCCx2&$;50mmeMMMMMCCVCCCCCCCCCCCCCVCCCCCCp,",
"#*1wmMMmmmmeMMVVVVCCCCCCCCCCCCCCCCMd,&$;5wMmlmMMmMCCCCCCCCCCCCCCCCCCCCCVB9>",
"$>9mVVMMewqqemMmmMVVVVCVCCCCCVCCCMe0;&%,qmVMMmmeemMMMMVCCCCCVCCCCCCCCCVMl3;",
"%<dMMmmeq66660qqemmMVVVVMVCCCVMVCzq5&$&9mVVMMkq770qeeemMVVVVVVVCCCVVVCMm8:&",
"%,wdmeqq0555550qwwqwemVMMMCCCVMMMMe<&$=9lMmleq055560qweelmMMMVVCCCVVMCVe1*&",
"#;9eew077655555qqq66wmmMMMCCCCMMmMe3&#&3klkq076555550ww00wemMMVVCCCMMVMmq;+",
"X*9zme07006555500056qlmmmMCCCCVlwee3&X$8lmk0000755550qq750eMmmmVCCCCMeemk,%",
".&1qke07655555566666qkllmmVVCBMeq00:+.O:qklw70765555670650wlmlMVCCCCMeww0>#",
" +:10q05:4;:55555450qqqeelmmllewq6:&X X;7qkq75544555555560wwelmMMMMmew054$.",
" O;:::5:;&&*;555;;;:1551700061666<*O  .*55766:;**45555::6000q0wwweqqq074*O.",
" O*4:;::*%$&;4<:*&+&*;**;4<;@@*45:&..  @;5444;*%&;455:*&*:4:4:506544565;$. ",
".X@:44::*$$$**4;&#X.X++$&**+X.+*:*O   .+;5;;4;&$$*;4:;&#O+&*@*;:;@OO*44*X  ",
"X+*:44::4&%$%&=;*O. .X..o$#.. X$&+.   X@;5::4;*%$%&*;;+X .XO##$&+. .O**+   ",
"X+*:54;**&%$$#%&&&+XX.. .o#o.Xo##OX. .X&;4444;*%$$%&&*&O......X#O...#&+O   ",
".#&;4;&%%&%$$$$$&*;*%o   .####$###oo..o$*:<;**&&$$#%$&&&@OXX   o#ooo###oo. ",
"O#$*;;&$$$$&%$%$&;<:-o   .o#%#######..o$*;:*%%$$$$%#$%*;:;$.   .###%#%##oo ",
".o$&&&&&&&&*--&#+&**%o   .oo#####o##X.o#&*-=&%%&&==&$#*;:*$.  ..####%####o.",
" .O$$$$&@&****&oXX#oo.   oo.oooo..Xo. .#&&&&&&&**;**$O$$@@O.  .ooo#ooooooo.",
"  ......XXXXo.o.  . .        ...   .   Xo#oo+O##$@++O...o..   .. .o... .o..",
"   .XXXX.XX..o..X.X......o.oo.....o.X   .oooO#OoOO##XXXX......Xooooooo..oo.",
"  .Xo##########o#######o##########o#o.  X#################o#############oo#",
"  .$%%%%%%$$%%%%$$$%%%%%%%%%%%%%%%%%%o .o$%$$$%%%%$$%%$$%%%%%%$$%%%$$$%%%%%",
".O-yuuuuuuuuuuuuuuuuuuuuuuuyyuuuuuur-#o&,yuuuuuuuuuuuuuuuuuuuuuuuyuuuuuutr=",
"#;ivPPPPIIPPPPIIPPPLPPPPPLLbLPPLPPIj>%&2gLPPPLPPPPPPPIIPPPPPPPPPLbLPPPPLvi-",
"%2xUTTTTTTTTEETTTTTTTTTTTTYYYTTTTTTSt&-pJYETTTTTTTTTEETTETTTTTTTYUTTETTTUa>",
"&2cYETEEETEEEEEEEEEEEEEEEEEREEEETTTPt&-aJTEEREEEETEEEEEEEEEEEEETTTEEETTTYh,",
"%2xYTETEETTETEETTETETTTERRYTYRRRTYYJt=-fJTTRRRRTTTTEETTTEEETTTETRTTETTTYUhr",
"%2cUYTTTTTETTTTTTTETTTETRRERYYYYTYYJt==sHYTTTTTTTEETTTETTUTETETETTYYYTYYYh>",
"%2xKTYYTTTETTETEETTTTEETTYYKKKKYTYYJt&-sJYYYTTTTETTETETEETTEETTUUKKKUYTYUhr",
"%2xKYYYYTTTETTETTTTTTTTTTYKHZCZKYTTJt=-sGYYYYYTTTETTETTTTTTTTTUUKZCCHYTYUf,",
"%2zKKKKYYYTTRRTTRYRYRYYTYKKHCCCZKYYJt=-pCKKKKYYYTTTTTYYRYTYYTYYUKZCCCHYYYf,",
"%2zCHZHKYYYRYTTYYYYYKHKYYYKHZCCCZKYJt&-pBZZHKYYYTTTTTYYYYYKKYYYKHZCCCZHKKj,",
"%2dVZZZKYYKKYYYTYYYKHZZKUKZHCCCCZKYPt=-pmZZHKKYYUUPTYRYUYKGCHUKKZZCCZCHKYh,",
"$,9BZHCZKKKHKYTRRKKZZZCZCZCCCCZZHYYPt&=3lCHZZHKKHHKTRYYKHZCCCZCCCCCCZZYTYh,",
"%:sMZZCCZZZCZKYTYKZZCCCCCCCCCCCCHKYJt&=3mCGZCCZHCGKYYYUKZZCCCCCCCCCCCZKYYh,",
"$,wmVCCCCCCCCKKKZZZZCCCCCCCCVCCCZKKSt==8lBCCCCCCCCZKUKZZZCCCCCCCCCCCCCZKKa,",
"$>8wzVVCBCCCCCZCCCCCCCCCCCCCCVCCCZHN2&&2qlMCVMVVCCCCZCCCCCCCCCCCCCCCCCCZZp>",
"#-10lVzmMVVCCCCCCCCCCCCVCCCCCCCCCCCN2&%47wmmmMVVBVCCCCCCCCCCCCCCCCCCCCCCCp,",
"O&:0eMllzVMMVCCCVVVCCCCCCCCCCCCCCCCm<%$;5qMMemMMmMCCCCCCCCCCCCCCCCVCVCCCVp>",
"$*1eMVMMmzllMMVMVVCCCCCCVCVCCCCCCCMe,&&;qmMMmMmmlmVVVVVVCCCCCVCVCCCCCCVMm7>",
"&,qMVVMmlq00qlllmMVVVVCVVCCVCVVCCMw1*%=3eVVVMlw00qwllmmVCCCCVVVCCCCCVCVmq,*",
"%2eMMmleq15510qqwmmmVVVVVCCCCVMVVMq4*$-pmVmmew055160qwelzMMVVVVCCCVMVCVe6;%",
"$,9deeq00655151weq0qemMVVVCVCVMVVMw1&#&3wleq066155110wwq0wmmVVMCCCCVMMMm0*$",
"O;9dew0006555510q066qlmmmMCCCCVmlzl8&O$3emeq006655550qq610emmmmVCVCVMmmmw4+",
"X*9lle00066555500056qlmlmMCVCCVlqle3&XO1emeq00665555600610wmmmmCCCCMMwweq>+",
".+<9eeq6555555556550qeemmVCVVMMl901;O.X;6qlw66555555151160weemmVCVVMmw075@X",
" +;50011:;;;<5554457q0qqwkeeeewq05;&X .*560764;;;45555::1000qqekklewqq74*#.",
" O;44:4:;&&*;<55;*;,554457776:5554*O. .@:5::<;*&&>:55:;*;11555677655555;%. ",
" X*4:;4;*%$&;:5:*$#O@**&;44;@O*:54$.   $;4;::;&$%*;44;&#O+**&*;4:*O@;55*X  ",
".O*44::4*&$$&*;:*#..X###%*&O..O&;*X   X@;5:::;*$$&*;;;%o..X$#$&*$O X+;*@   ",
"X+;:44::;&%$$%&;&+......o##X. X$&$X  .X&;55:::*&$%%&**&o.....Xo$o. .X&$O   ",
"XO&;5:***&%$$$$$&$++XX   oo#XX####X. .X$*45;***$##$$&&&$+OX.  .o#ooo#$#oo  ",
"o#&;::*$%$$$$#$$&*4*&O   .o####$###o..o$*4:*$$%%%%$#$%*;;*#.  ..####%####o ",
"o#$***&$%%%%&&$$&;::*X.  .o#$#$#####..o$&***$$$&&%&$$$&4:;%.   .##%######o.",
".o$&&&&&&&*;;;@+#@&&$.   Xooo##oooo#...#&*&&&&&**;;*@O+@*@O.  .Xoo###ooo#o.",
" .X##O++$+@@@@+XXXXoX    .XX.oo.. .o.  XO#OO++++&@@+O.XXXX..   XX.ooo. .o. ",
"  ....XXXXXXOXX.          . ...    .    ...XXXX.XOOX.              ..   .  "
};
